<?xml version="1.0" encoding="UTF-8"?>
<!DOCTYPE svg PUBLIC "-//W3C//DTD SVG 1.1//EN" "http://www.w3.org/Graphics/SVG/1.1/DTD/svg11.dtd">
<!-- Creator: CorelDRAW -->
<svg xmlns="http://www.w3.org/2000/svg" xml:space="preserve" width="210mm" height="297mm" style="shape-rendering:geometricPrecision; text-rendering:geometricPrecision; image-rendering:optimizeQuality; fill-rule:evenodd; clip-rule:evenodd"
viewBox="0 0 210 297"
 xmlns:xlink="http://www.w3.org/1999/xlink">
 <defs>
  <style type="text/css">
   <![CDATA[
    .fil0 {fill:#1FA1D9}
    .fil1 {fill:#F39431}
    .fil8 {fill:#4D4D4D;fill-rule:nonzero}
    .fil9 {fill:#E6E6E6;fill-rule:nonzero}
    .fil10 {fill:white;fill-rule:nonzero}
    .fil2 {fill:#0053A1;fill-opacity:0.501961}
    .fil3 {fill:#B55E1B;fill-opacity:0.501961}
    .fil4 {fill:#D15C1E;fill-opacity:0.501961}
    .fil6 {fill:#0766AF;fill-opacity:0.600000}
    .fil5 {fill:#1FA1D9;fill-opacity:0.600000}
    .fil7 {fill:#1FA1D9;fill-opacity:0.800000}
   ]]>
  </style>
 </defs>
 <g id="Layer_x0020_1">
  <metadata id="CorelCorpID_0Corel-Layer"/>
  <g id="_576808672">
   <g>
    <path id="_522364672" class="fil0" d="M20.5436 10.2435c0,0 -0.4345,0.8484 -1.0553,1.2622 -3.0066,2.0045 -7.18,0.4698 -7.18,-3.2279 0,0 0,-1.3242 0.538,-2.2968 0,0 -3.828,-0.538 -3.9522,3.7246 0,0 0.3311,3.2072 3.6211,5.2557 0,0 2.9796,2.0691 7.0145,0.5586 0,0 2.0485,-0.6414 3.5176,-2.6071 0,0 1.345,-1.4691 -0.1241,-2.8762 -0.6729,-0.6026 -1.9117,-0.5094 -2.3796,0.2069z"/>
    <path id="_522364912" class="fil1" d="M13.2423 15.3557c1.1206,0.5142 3.4414,1.2297 6.2874,0.1642 0,0 0.4557,-0.1427 1.0913,-0.4996 -0.7708,-1.1616 -2.0902,-1.9276 -3.5887,-1.9276 -1.6384,0 -3.063,0.9156 -3.79,2.263z"/>
    <path id="_522364792" class="fil2" d="M20.3453 10.5773c-0.1853,0.2836 -0.4883,0.6826 -0.857,0.9284 -0.2124,0.1417 -0.4977,0.3052 -0.8307,0.4572 -0.122,0.2853 -0.1895,0.5992 -0.1895,0.9292 0,1.12 0.7786,2.0581 1.824,2.3028 0.7306,-0.3662 1.8522,-1.0739 2.7552,-2.2821 0,0 0.0622,-0.068 0.1452,-0.1886 -0.0861,-1.2279 -1.1094,-2.1974 -2.3592,-2.1974 -0.1673,0 -0.3305,0.0175 -0.488,0.0505z"/>
    <path id="_522364432" class="fil2" d="M21.8186 14.1988c0.4179,-0.3457 0.8432,-0.7702 1.2287,-1.286 0,0 1.0614,-1.1596 0.2682,-2.405 -0.0991,-0.0147 -0.2002,-0.0223 -0.3033,-0.0223 -1.1314,0 -2.0485,0.9171 -2.0485,2.0484 0,0.686 0.3373,1.2932 0.8549,1.6649z"/>
    <path id="_522365680" class="fil1" d="M11.2386 4.3193c0.8634,0 1.5894,0.5876 1.8003,1.3846 -0.4,0.5802 -0.6603,1.2641 -0.7322,2.0032 -0.3024,0.2121 -0.6707,0.3367 -1.0681,0.3367 -1.0285,0 -1.8623,-0.8338 -1.8623,-1.8623 0,-1.0285 0.8338,-1.8622 1.8623,-1.8622z"/>
    <path id="_522365656" class="fil1" d="M15.4389 0.381c0.0761,0.2033 0.1179,0.4234 0.1179,0.6533 0,1.0285 -0.8338,1.8623 -1.8623,1.8623 -0.7549,0 -1.4048,-0.4492 -1.6972,-1.0948 0.1837,-0.1365 0.3784,-0.2696 0.5847,-0.3981 0,0 1.0954,-0.7603 2.8569,-1.0227z"/>
    <path id="_522365920" class="fil3" d="M19.1765 0.6996c-0.5841,0.5824 -1.3899,0.9424 -2.2799,0.9424 -0.9502,0 -1.8045,-0.4105 -2.3954,-1.0637 1.1676,-0.3191 2.7946,-0.4803 4.6753,0.1213z"/>
    <path id="_522365536" class="fil4" d="M13.0997 3.7259c0.53,0 0.9829,0.3298 1.1647,0.7954 -0.6385,0.4071 -1.1614,0.9792 -1.5089,1.6561 -0.5229,-0.1495 -0.9056,-0.6309 -0.9056,-1.2017 0,-0.6903 0.5595,-1.2498 1.2498,-1.2498z"/>
    <circle id="_522366616" class="fil0" cx="8.90612" cy="8.64008" r="1.50457"/>
    <path id="_522366064" class="fil5" d="M8.3475 3.3139c1.2845,0 2.3258,1.0412 2.3258,2.3258 0,1.2845 -1.0413,2.3259 -2.3258,2.3259 -1.2845,0 -2.3258,-1.0414 -2.3258,-2.3259 0,-1.2846 1.0413,-2.3258 2.3258,-2.3258z"/>
    <path id="_522366040" class="fil5" d="M4.5319 4.8077c0.5217,0 0.9445,0.4228 0.9445,0.9445 0,0.5216 -0.4228,0.9445 -0.9445,0.9445 -0.5216,0 -0.9445,-0.4229 -0.9445,-0.9445 0,-0.5217 0.4229,-0.9445 0.9445,-0.9445z"/>
    <path id="_522366160" class="fil5" d="M10.4498 1.3315c0.5216,0 0.9444,0.4227 0.9444,0.9444 0,0.5217 -0.4228,0.9446 -0.9444,0.9446 -0.5217,0 -0.9446,-0.4229 -0.9446,-0.9446 0,-0.5217 0.4229,-0.9444 0.9446,-0.9444z"/>
    <path id="_522366208" class="fil5" d="M3.9077 7.5561c0.2818,0 0.5103,0.2283 0.5103,0.5101 0,0.2818 -0.2285,0.5103 -0.5103,0.5103 -0.2818,0 -0.5102,-0.2285 -0.5102,-0.5103 0,-0.2818 0.2284,-0.5101 0.5102,-0.5101z"/>
    <path id="_522366352" class="fil5" d="M6.8079 9.7181c0.4152,0 0.7518,0.3367 0.7518,0.7518 0,0.4152 -0.3366,0.7517 -0.7518,0.7517 -0.4152,0 -0.7516,-0.3365 -0.7516,-0.7517 0,-0.4151 0.3364,-0.7518 0.7516,-0.7518z"/>
    <path id="_522366808" class="fil5" d="M8.1943 11.339c0.7657,0 1.3864,0.6206 1.3864,1.3862 0,0.7658 -0.6207,1.3864 -1.3864,1.3864 -0.7657,0 -1.3864,-0.6206 -1.3864,-1.3864 0,-0.7656 0.6207,-1.3862 1.3864,-1.3862z"/>
    <path id="_522367456" class="fil6" d="M10.2635 11.2976c0.9714,0 1.7588,0.7875 1.7588,1.7588 0,0.9714 -0.7874,1.7589 -1.7588,1.7589 -0.9713,0 -1.7588,-0.7875 -1.7588,-1.7589 0,-0.9713 0.7875,-1.7588 1.7588,-1.7588z"/>
    <path id="_522366976" class="fil5" d="M5.6824 11.4625c0.3858,0 0.6984,0.3126 0.6984,0.6983 0,0.3857 -0.3126,0.6985 -0.6984,0.6985 -0.3858,0 -0.6984,-0.3128 -0.6984,-0.6985 0,-0.3857 0.3126,-0.6983 0.6984,-0.6983z"/>
    <path id="_522367216" class="fil5" d="M3.6619 9.7588c0.6432,0 1.1647,0.5215 1.1647,1.1647 0,0.6433 -0.5215,1.1647 -1.1647,1.1647 -0.6432,0 -1.1647,-0.5214 -1.1647,-1.1647 0,-0.6432 0.5215,-1.1647 1.1647,-1.1647z"/>
    <path id="_522367288" class="fil5" d="M1.8075 8.2627c0.5067,0 0.9174,0.4107 0.9174,0.9174 0,0.5067 -0.4107,0.9174 -0.9174,0.9174 -0.5066,0 -0.9174,-0.4107 -0.9174,-0.9174 0,-0.5067 0.4108,-0.9174 0.9174,-0.9174z"/>
    <path id="_522367888" class="fil5" d="M0.9729 11.9527c0.2533,0 0.4587,0.2055 0.4587,0.4588 0,0.2534 -0.2054,0.4587 -0.4587,0.4587 -0.2534,0 -0.4587,-0.2053 -0.4587,-0.4587 0,-0.2533 0.2053,-0.4588 0.4587,-0.4588z"/>
    <path id="_522368152" class="fil5" d="M3.7455 4.0138c0.183,0 0.3313,0.1483 0.3313,0.3312 0,0.1829 -0.1483,0.3312 -0.3313,0.3312 -0.1829,0 -0.3311,-0.1483 -0.3311,-0.3312 0,-0.1829 0.1482,-0.3312 0.3311,-0.3312z"/>
    <path id="_522367648" class="fil7" d="M5.8762 7.8232c0.7431,0 1.3456,0.6025 1.3456,1.3456 0,0.7431 -0.6025,1.3455 -1.3456,1.3455 -0.7431,0 -1.3455,-0.6024 -1.3455,-1.3455 0,-0.7431 0.6024,-1.3456 1.3455,-1.3456z"/>
    <path id="_522368248" class="fil5" d="M2.8648 6.4684c0.1663,0 0.301,0.1348 0.301,0.3009 0,0.1662 -0.1347,0.3011 -0.301,0.3011 -0.1661,0 -0.3009,-0.1349 -0.3009,-0.3011 0,-0.1661 0.1348,-0.3009 0.3009,-0.3009z"/>
    <path id="_522367600" class="fil5" d="M6.1044 6.8063c0.652,0 1.1806,0.5285 1.1806,1.1806 0,0.652 -0.5286,1.1805 -1.1806,1.1805 -0.6519,0 -1.1805,-0.5285 -1.1805,-1.1805 0,-0.6521 0.5286,-1.1806 1.1805,-1.1806z"/>
   </g>
   <path id="_522364888" class="fil8" d="M23.0769 4.1613c-0.0391,0.0167 -0.0847,0.0315 -0.1367,0.0443 -0.052,0.0128 -0.1078,0.0224 -0.1668,0.0295 -0.0591,0.0071 -0.1181,0.0109 -0.1778,0.0109 -0.1791,0 -0.3344,-0.0398 -0.4653,-0.1174 -0.1309,-0.0783 -0.2323,-0.1938 -0.3042,-0.3466 -0.0712,-0.1521 -0.1078,-0.3408 -0.1085,-0.5641 0.0007,-0.1791 0.0238,-0.3344 0.0693,-0.4666 0.045,-0.1322 0.1079,-0.2413 0.1881,-0.3279 0.0809,-0.086 0.1739,-0.1509 0.2804,-0.1932 0.1066,-0.0424 0.2208,-0.0636 0.344,-0.0636 0.1021,0.0007 0.1919,0.0103 0.2702,0.0296 0.0783,0.0186 0.1457,0.0404 0.2035,0.0667l0.1117 -0.4621c-0.0283,-0.016 -0.07,-0.0327 -0.1252,-0.0494 -0.0552,-0.0173 -0.1239,-0.0314 -0.2054,-0.0436 -0.0808,-0.0122 -0.1752,-0.018 -0.2817,-0.0186 -0.1579,0 -0.3087,0.0211 -0.4525,0.0628 -0.1444,0.0418 -0.2766,0.104 -0.3979,0.1874 -0.1213,0.0835 -0.2265,0.1881 -0.3164,0.3126 -0.0898,0.1251 -0.1598,0.2708 -0.2092,0.4364 -0.0501,0.1662 -0.0751,0.353 -0.0757,0.5603 0,0.2201 0.0308,0.421 0.0911,0.602 0.0603,0.181 0.1489,0.3369 0.2663,0.4685 0.1175,0.1315 0.2619,0.2323 0.4339,0.3035 0.1714,0.0713 0.3684,0.1079 0.5911,0.1085 0.102,-0.0006 0.1951,-0.0058 0.2798,-0.0173 0.0854,-0.0109 0.1592,-0.0244 0.2233,-0.0417 0.0636,-0.0167 0.1136,-0.0341 0.1515,-0.0527l-0.0809 -0.4582zm1.6135 -2.476c-0.1553,0.0006 -0.2978,0.0257 -0.4287,0.0745 -0.1303,0.0494 -0.2471,0.12 -0.3504,0.2111 -0.1027,0.0918 -0.19,0.2002 -0.2625,0.3273 -0.0719,0.1271 -0.1264,0.2683 -0.1643,0.4236 -0.0379,0.1553 -0.0571,0.3222 -0.0571,0.4999 0,0.172 0.0173,0.335 0.0526,0.4871 0.0347,0.1521 0.0854,0.2914 0.1534,0.4166 0.0674,0.1251 0.1508,0.2336 0.2496,0.3241 0.0989,0.0911 0.2131,0.1611 0.3415,0.2105 0.1283,0.0494 0.2708,0.0744 0.4274,0.0751 0.1848,0 0.3536,-0.0328 0.507,-0.0989 0.1534,-0.0654 0.2862,-0.1636 0.3986,-0.2939 0.1123,-0.1303 0.1989,-0.2933 0.2605,-0.4878 0.061,-0.1944 0.0924,-0.421 0.0931,-0.679 0,-0.1585 -0.0161,-0.3112 -0.0482,-0.4582 -0.032,-0.147 -0.0808,-0.2824 -0.145,-0.4075 -0.0648,-0.1245 -0.1457,-0.2343 -0.2432,-0.3274 -0.0976,-0.093 -0.2118,-0.1662 -0.3421,-0.2182 -0.1309,-0.0519 -0.2779,-0.0783 -0.4422,-0.0789zm-0.0154 0.4659c0.0873,0.0007 0.1649,0.0193 0.2336,0.0565 0.0687,0.0372 0.1284,0.0892 0.1797,0.156 0.0507,0.0661 0.0931,0.1437 0.1264,0.2317 0.0334,0.0879 0.0584,0.1835 0.0751,0.2855 0.0161,0.1027 0.0244,0.2086 0.0244,0.3177 0,0.1502 -0.0135,0.2901 -0.0411,0.4191 -0.0269,0.129 -0.0673,0.2426 -0.1213,0.3402 -0.0539,0.0975 -0.1212,0.1732 -0.2015,0.2278 -0.0802,0.0545 -0.1733,0.0828 -0.2791,0.0834 -0.1053,-0.0006 -0.1977,-0.0289 -0.2779,-0.0834 -0.0809,-0.0552 -0.1483,-0.1309 -0.2028,-0.2278 -0.0552,-0.097 -0.0963,-0.2093 -0.1239,-0.337 -0.0282,-0.1277 -0.0424,-0.2644 -0.0424,-0.4107 0,-0.1091 0.0084,-0.2157 0.0251,-0.319 0.016,-0.1027 0.0417,-0.1989 0.0751,-0.2881 0.034,-0.0899 0.077,-0.1682 0.1283,-0.2356 0.052,-0.0674 0.113,-0.1206 0.1829,-0.1585 0.0706,-0.0379 0.1502,-0.0571 0.2394,-0.0578zm3.2346 -0.3273c-0.0462,-0.0237 -0.1008,-0.0455 -0.1637,-0.0661 -0.0629,-0.0199 -0.1341,-0.0366 -0.213,-0.0494 -0.0783,-0.0122 -0.165,-0.0186 -0.2587,-0.0192 -0.1598,0.0006 -0.3029,0.0224 -0.4293,0.0661 -0.1258,0.043 -0.2324,0.1033 -0.3203,0.1809 -0.0879,0.0777 -0.1553,0.1688 -0.2015,0.2728 -0.0456,0.104 -0.0687,0.2169 -0.0693,0.3389 0.0006,0.1283 0.0301,0.2445 0.0886,0.3497 0.0584,0.1053 0.1411,0.1996 0.249,0.2837 0.1078,0.0834 0.2368,0.1572 0.3863,0.2214 0.1091,0.0469 0.1977,0.0937 0.2676,0.1412 0.0694,0.0469 0.1201,0.0982 0.1534,0.1528 0.0328,0.0551 0.0494,0.1174 0.0488,0.1874 0,0.0738 -0.018,0.1379 -0.0545,0.1931 -0.0366,0.0552 -0.0905,0.0989 -0.1618,0.1297 -0.0712,0.0308 -0.1598,0.0462 -0.265,0.0468 -0.0803,0 -0.1592,-0.0077 -0.2375,-0.0224 -0.0783,-0.0148 -0.1521,-0.0341 -0.2208,-0.0591 -0.0686,-0.025 -0.129,-0.0526 -0.181,-0.0841l-0.1116 0.4775c0.0475,0.0289 0.1091,0.0559 0.1855,0.0809 0.0763,0.0244 0.161,0.0449 0.2541,0.0603 0.0937,0.0161 0.1893,0.0238 0.2882,0.0244 0.1726,-0.0006 0.3253,-0.0231 0.4595,-0.0667 0.1335,-0.0443 0.2464,-0.1066 0.3382,-0.1868 0.0918,-0.0796 0.1617,-0.1739 0.2092,-0.2824 0.0475,-0.1084 0.0713,-0.2278 0.0713,-0.3575 0.0006,-0.1296 -0.0238,-0.247 -0.0726,-0.3523 -0.0487,-0.1059 -0.1232,-0.2015 -0.2246,-0.2875 -0.1014,-0.086 -0.2304,-0.1643 -0.3883,-0.2343 -0.0905,-0.041 -0.1675,-0.0789 -0.2323,-0.1142 -0.0642,-0.0353 -0.1168,-0.07 -0.1572,-0.1053 -0.0411,-0.0353 -0.0713,-0.0731 -0.0905,-0.1142 -0.0186,-0.0411 -0.0283,-0.0873 -0.0283,-0.1399 0,-0.0565 0.0154,-0.1091 0.0462,-0.1585 0.0309,-0.0494 0.0783,-0.0899 0.1425,-0.1207 0.0642,-0.0314 0.1464,-0.0475 0.2465,-0.0481 0.0808,0.0006 0.1546,0.0077 0.2214,0.0205 0.0667,0.0135 0.1258,0.0302 0.1771,0.0494 0.0514,0.0193 0.0944,0.0386 0.129,0.0572l0.1194 -0.466zm2.3374 -0.0924l-2.0293 0 0 0.4929 0.7277 0 0 2.4683 0.5699 0 0 -2.4683 0.7317 0 0 -0.4929zm1.598 0l-0.7162 0 -0.8394 2.9612 0.5776 0 0.2041 -0.7817 0.7932 0 0.2118 0.7817 0.5968 0 -0.8279 -2.9612zm-0.6931 1.7482l0.1772 -0.6777c0.0141,-0.0584 0.0288,-0.1226 0.0442,-0.1919 0.0154,-0.0693 0.0302,-0.1393 0.045,-0.2092 0.0147,-0.0706 0.0288,-0.1373 0.0417,-0.1996l0.0115 0c0.0129,0.061 0.027,0.1264 0.0417,0.1957 0.0148,0.07 0.0302,0.1399 0.0463,0.2099 0.016,0.0706 0.0314,0.1367 0.0468,0.199l0.1771 0.6738 -0.6315 0zm3.4695 -1.6558c-0.0462,-0.0237 -0.1008,-0.0455 -0.1637,-0.0661 -0.0629,-0.0199 -0.1341,-0.0366 -0.213,-0.0494 -0.0783,-0.0122 -0.165,-0.0186 -0.2587,-0.0192 -0.1598,0.0006 -0.3029,0.0224 -0.4293,0.0661 -0.1258,0.043 -0.2324,0.1033 -0.3203,0.1809 -0.0879,0.0777 -0.1553,0.1688 -0.2015,0.2728 -0.0456,0.104 -0.0687,0.2169 -0.0693,0.3389 0.0006,0.1283 0.0301,0.2445 0.0886,0.3497 0.0584,0.1053 0.1411,0.1996 0.249,0.2837 0.1078,0.0834 0.2368,0.1572 0.3863,0.2214 0.1091,0.0469 0.1977,0.0937 0.2676,0.1412 0.0694,0.0469 0.1201,0.0982 0.1534,0.1528 0.0328,0.0551 0.0494,0.1174 0.0488,0.1874 0,0.0738 -0.018,0.1379 -0.0545,0.1931 -0.0366,0.0552 -0.0905,0.0989 -0.1618,0.1297 -0.0712,0.0308 -0.1598,0.0462 -0.265,0.0468 -0.0803,0 -0.1592,-0.0077 -0.2375,-0.0224 -0.0783,-0.0148 -0.1521,-0.0341 -0.2208,-0.0591 -0.0686,-0.025 -0.129,-0.0526 -0.181,-0.0841l-0.1116 0.4775c0.0475,0.0289 0.1091,0.0559 0.1855,0.0809 0.0763,0.0244 0.161,0.0449 0.2541,0.0603 0.0937,0.0161 0.1893,0.0238 0.2882,0.0244 0.1726,-0.0006 0.3253,-0.0231 0.4595,-0.0667 0.1335,-0.0443 0.2464,-0.1066 0.3382,-0.1868 0.0918,-0.0796 0.1617,-0.1739 0.2092,-0.2824 0.0475,-0.1084 0.0713,-0.2278 0.0713,-0.3575 0.0006,-0.1296 -0.0238,-0.247 -0.0726,-0.3523 -0.0487,-0.1059 -0.1232,-0.2015 -0.2246,-0.2875 -0.1014,-0.086 -0.2304,-0.1643 -0.3883,-0.2343 -0.0905,-0.041 -0.1675,-0.0789 -0.2323,-0.1142 -0.0642,-0.0353 -0.1168,-0.07 -0.1572,-0.1053 -0.0411,-0.0353 -0.0713,-0.0731 -0.0905,-0.1142 -0.0186,-0.0411 -0.0283,-0.0873 -0.0283,-0.1399 0,-0.0565 0.0154,-0.1091 0.0462,-0.1585 0.0309,-0.0494 0.0783,-0.0899 0.1425,-0.1207 0.0642,-0.0314 0.1464,-0.0475 0.2465,-0.0481 0.0808,0.0006 0.1546,0.0077 0.2214,0.0205 0.0667,0.0135 0.1258,0.0302 0.1771,0.0494 0.0514,0.0193 0.0944,0.0386 0.129,0.0572l0.1194 -0.466z"/>
   <path id="_522368944" class="fil8" d="M23.0841 8.3167l-1.3593 0 0 -0.0077 0.2195 -0.2304c0.1681,-0.1669 0.3177,-0.3229 0.4486,-0.4685 0.1316,-0.1457 0.2426,-0.2856 0.3344,-0.4198 0.0911,-0.1335 0.1604,-0.2669 0.2079,-0.3985 0.0475,-0.1316 0.0719,-0.267 0.0719,-0.4056 0,-0.0725 -0.0084,-0.147 -0.0263,-0.2214 -0.0174,-0.0751 -0.0456,-0.147 -0.0841,-0.2163 -0.0379,-0.0687 -0.0879,-0.1303 -0.1489,-0.1842 -0.0616,-0.0546 -0.1354,-0.0976 -0.2227,-0.1296 -0.0873,-0.0315 -0.188,-0.0475 -0.3036,-0.0482 -0.0975,0.0007 -0.1899,0.0129 -0.2772,0.0379 -0.0873,0.025 -0.1682,0.0584 -0.2426,0.1014 -0.0738,0.0423 -0.1412,0.0911 -0.2002,0.1457l0.0885 0.1611c0.0482,-0.0405 0.1027,-0.0796 0.1637,-0.1168 0.0616,-0.0373 0.1277,-0.0681 0.1989,-0.0918 0.0713,-0.0244 0.1457,-0.0366 0.2227,-0.0372 0.113,0.0006 0.208,0.0186 0.2837,0.0539 0.0764,0.0353 0.1367,0.0834 0.1816,0.1437 0.0443,0.0597 0.0764,0.1277 0.0956,0.2028 0.0193,0.0751 0.0289,0.1534 0.0283,0.2336 0,0.1226 -0.0218,0.2433 -0.0655,0.3626 -0.0443,0.1194 -0.111,0.2439 -0.2009,0.3729 -0.0892,0.1297 -0.2028,0.2696 -0.3395,0.421 -0.1367,0.1508 -0.2984,0.3196 -0.4839,0.5051l-0.2618 0.2805 0 0.1463 1.6712 0 0 -0.1925zm1.2591 0.2387c0.1862,0 0.3466,-0.0552 0.482,-0.1669 0.1354,-0.111 0.2407,-0.2791 0.3145,-0.5031 0.0738,-0.2246 0.1117,-0.507 0.1123,-0.8472 -0.0006,-0.2451 -0.0218,-0.4588 -0.0635,-0.6411 -0.0424,-0.1823 -0.1014,-0.3331 -0.1778,-0.4531 -0.077,-0.12 -0.1675,-0.2092 -0.2721,-0.2689 -0.1046,-0.0591 -0.2195,-0.0886 -0.3453,-0.0886 -0.1258,-0.0006 -0.2439,0.0283 -0.3543,0.086 -0.1104,0.0584 -0.2073,0.1476 -0.2913,0.2689 -0.0848,0.1213 -0.1502,0.2773 -0.1983,0.4672 -0.0475,0.1894 -0.0719,0.4166 -0.0726,0.6797 0.0007,0.2503 0.0238,0.4672 0.0681,0.6514 0.0449,0.1842 0.1071,0.3369 0.1861,0.4576 0.0789,0.1206 0.1713,0.2105 0.2753,0.2695 0.1046,0.0591 0.2169,0.0886 0.3369,0.0886zm0.0116 -0.1964c-0.0982,-0.0006 -0.1868,-0.0314 -0.2644,-0.093 -0.0777,-0.061 -0.1438,-0.1489 -0.199,-0.2632 -0.0545,-0.1142 -0.0962,-0.2509 -0.1245,-0.4107 -0.0289,-0.1592 -0.0436,-0.3376 -0.0436,-0.5346 0.0006,-0.1977 0.0167,-0.3755 0.0487,-0.5321 0.0328,-0.1572 0.0777,-0.2907 0.1361,-0.4011 0.0584,-0.111 0.1264,-0.1951 0.2054,-0.2535 0.0783,-0.0584 0.1636,-0.0873 0.2567,-0.0879 0.1123,0.0006 0.2092,0.0321 0.2901,0.0943 0.0808,0.0623 0.1469,0.1502 0.1983,0.2645 0.052,0.1136 0.0898,0.2477 0.1142,0.403 0.0244,0.1553 0.0366,0.326 0.0366,0.5128 0,0.1444 -0.0077,0.2817 -0.0231,0.412 -0.0154,0.1297 -0.0391,0.249 -0.0719,0.3575 -0.0327,0.1078 -0.0744,0.2021 -0.1264,0.2811 -0.0513,0.0796 -0.113,0.1412 -0.1848,0.1848 -0.0719,0.0437 -0.1547,0.0655 -0.2484,0.0661zm2.3027 0.1502l0 -2.8765 -0.2118 0 -0.5545 0.3273 0.0616 0.181 0.4621 -0.2772 0.0077 0 0 2.6454 0.2349 0zm1.1128 -2.6801l1.4055 0 0 0.0077 -1.2399 2.6724 0.2387 0 1.2438 -2.7224 0 -0.1541 -1.6481 0 0 0.1964z"/>
  </g>
  <g id="_522369712">
   <path id="_522337312" class="fil0" d="M20.5436 26.9935c0,0 -0.4345,0.8484 -1.0553,1.2622 -3.0066,2.0045 -7.18,0.4698 -7.18,-3.2279 0,0 0,-1.3242 0.538,-2.2968 0,0 -3.828,-0.538 -3.9522,3.7246 0,0 0.3311,3.2072 3.6211,5.2557 0,0 2.9796,2.0691 7.0145,0.5586 0,0 2.0485,-0.6414 3.5176,-2.6071 0,0 1.345,-1.4691 -0.1241,-2.8762 -0.6729,-0.6026 -1.9117,-0.5094 -2.3796,0.2069z"/>
   <path id="_522336928" class="fil1" d="M13.2423 32.1057c1.1206,0.5142 3.4414,1.2297 6.2874,0.1642 0,0 0.4557,-0.1427 1.0913,-0.4996 -0.7708,-1.1616 -2.0902,-1.9276 -3.5887,-1.9276 -1.6384,0 -3.063,0.9156 -3.79,2.263z"/>
   <path id="_522336952" class="fil2" d="M20.3453 27.3273c-0.1853,0.2836 -0.4883,0.6827 -0.857,0.9284 -0.2124,0.1417 -0.4977,0.3052 -0.8307,0.4572 -0.122,0.2853 -0.1895,0.5993 -0.1895,0.9291 0,1.1201 0.7786,2.0582 1.824,2.303 0.7306,-0.3662 1.8523,-1.074 2.7552,-2.2822 0,0 0.0622,-0.068 0.1452,-0.1885 -0.0861,-1.228 -1.1094,-2.1975 -2.3592,-2.1975 -0.1673,0 -0.3305,0.0175 -0.488,0.0505z"/>
   <path id="_522337840" class="fil2" d="M21.8187 30.9488c0.4178,-0.3458 0.8431,-0.7702 1.2286,-1.286 0,0 1.0614,-1.1596 0.2682,-2.4049 -0.099,-0.0147 -0.2002,-0.0224 -0.3033,-0.0224 -1.1313,0 -2.0485,0.9171 -2.0485,2.0484 0,0.686 0.3373,1.2932 0.855,1.6649z"/>
   <path id="_522338032" class="fil1" d="M11.2386 21.0693c0.8634,0 1.5894,0.5876 1.8003,1.3846 -0.4,0.5802 -0.6603,1.2641 -0.7322,2.0032 -0.3024,0.2121 -0.6707,0.3367 -1.0681,0.3367 -1.0285,0 -1.8623,-0.8338 -1.8623,-1.8623 0,-1.0285 0.8338,-1.8622 1.8623,-1.8622z"/>
   <path id="_522338104" class="fil1" d="M15.4389 17.131c0.0761,0.2033 0.1179,0.4234 0.1179,0.6533 0,1.0285 -0.8338,1.8623 -1.8623,1.8623 -0.7549,0 -1.4048,-0.4492 -1.6972,-1.0948 0.1837,-0.1365 0.3784,-0.2696 0.5847,-0.3981 0,0 1.0954,-0.7603 2.8569,-1.0227z"/>
   <path id="_522337552" class="fil3" d="M19.1765 17.4497c-0.584,0.5823 -1.3899,0.9423 -2.2798,0.9423 -0.9503,0 -1.8046,-0.4105 -2.3955,-1.0637 1.1676,-0.319 2.7946,-0.4804 4.6753,0.1214z"/>
   <path id="_522338584" class="fil4" d="M13.0997 20.4758c0.53,0 0.9829,0.3299 1.1647,0.7955 -0.6384,0.4071 -1.1614,0.9792 -1.509,1.6561 -0.5228,-0.1495 -0.9055,-0.6309 -0.9055,-1.2018 0,-0.6902 0.5596,-1.2498 1.2498,-1.2498z"/>
   <circle id="_522338656" class="fil0" cx="8.90612" cy="25.3901" r="1.50457"/>
   <path id="_522338320" class="fil5" d="M8.3475 20.0639c1.2845,0 2.3258,1.0413 2.3258,2.3258 0,1.2845 -1.0413,2.3258 -2.3258,2.3258 -1.2845,0 -2.3258,-1.0413 -2.3258,-2.3258 0,-1.2845 1.0413,-2.3258 2.3258,-2.3258z"/>
   <path id="_522338776" class="fil5" d="M4.5319 21.5577c0.5216,0 0.9445,0.4228 0.9445,0.9445 0,0.5216 -0.4229,0.9445 -0.9445,0.9445 -0.5217,0 -0.9445,-0.4229 -0.9445,-0.9445 0,-0.5217 0.4228,-0.9445 0.9445,-0.9445z"/>
   <path id="_522338344" class="fil5" d="M10.4497 18.0814c0.5217,0 0.9445,0.4229 0.9445,0.9445 0,0.5217 -0.4228,0.9446 -0.9445,0.9446 -0.5216,0 -0.9445,-0.4229 -0.9445,-0.9446 0,-0.5216 0.4229,-0.9445 0.9445,-0.9445z"/>
   <path id="_522338536" class="fil5" d="M3.9077 24.306c0.2818,0 0.5103,0.2285 0.5103,0.5103 0,0.2818 -0.2285,0.5102 -0.5103,0.5102 -0.2818,0 -0.5102,-0.2284 -0.5102,-0.5102 0,-0.2818 0.2284,-0.5103 0.5102,-0.5103z"/>
   <path id="_522339808" class="fil5" d="M6.808 26.4682c0.4151,0 0.7517,0.3365 0.7517,0.7517 0,0.4152 -0.3366,0.7517 -0.7517,0.7517 -0.4152,0 -0.7518,-0.3365 -0.7518,-0.7517 0,-0.4152 0.3366,-0.7517 0.7518,-0.7517z"/>
   <path id="_522339448" class="fil5" d="M8.1943 28.0889c0.7657,0 1.3864,0.6207 1.3864,1.3864 0,0.7657 -0.6207,1.3864 -1.3864,1.3864 -0.7657,0 -1.3864,-0.6207 -1.3864,-1.3864 0,-0.7657 0.6207,-1.3864 1.3864,-1.3864z"/>
   <path id="_522339520" class="fil6" d="M10.2635 28.0476c0.9714,0 1.7588,0.7875 1.7588,1.7588 0,0.9714 -0.7874,1.7588 -1.7588,1.7588 -0.9714,0 -1.7588,-0.7874 -1.7588,-1.7588 0,-0.9713 0.7874,-1.7588 1.7588,-1.7588z"/>
   <path id="_522339232" class="fil5" d="M5.6824 28.2124c0.3857,0 0.6984,0.3127 0.6984,0.6984 0,0.3857 -0.3127,0.6984 -0.6984,0.6984 -0.3857,0 -0.6984,-0.3127 -0.6984,-0.6984 0,-0.3857 0.3127,-0.6984 0.6984,-0.6984z"/>
   <path id="_522339256" class="fil5" d="M3.6619 26.5088c0.6433,0 1.1647,0.5215 1.1647,1.1647 0,0.6433 -0.5214,1.1647 -1.1647,1.1647 -0.6432,0 -1.1647,-0.5214 -1.1647,-1.1647 0,-0.6432 0.5215,-1.1647 1.1647,-1.1647z"/>
   <path id="_522339136" class="fil5" d="M1.8075 25.0127c0.5066,0 0.9174,0.4107 0.9174,0.9174 0,0.5066 -0.4108,0.9174 -0.9174,0.9174 -0.5067,0 -0.9174,-0.4108 -0.9174,-0.9174 0,-0.5067 0.4107,-0.9174 0.9174,-0.9174z"/>
   <path id="_522339904" class="fil5" d="M0.9729 28.7028c0.2533,0 0.4587,0.2054 0.4587,0.4587 0,0.2533 -0.2054,0.4587 -0.4587,0.4587 -0.2534,0 -0.4587,-0.2054 -0.4587,-0.4587 0,-0.2533 0.2053,-0.4587 0.4587,-0.4587z"/>
   <path id="_522339952" class="fil5" d="M3.7456 20.7638c0.1829,0 0.3312,0.1483 0.3312,0.3312 0,0.1829 -0.1483,0.3312 -0.3312,0.3312 -0.1829,0 -0.3312,-0.1483 -0.3312,-0.3312 0,-0.1829 0.1483,-0.3312 0.3312,-0.3312z"/>
   <path id="_522340408" class="fil7" d="M5.8762 24.5732c0.7432,0 1.3456,0.6024 1.3456,1.3456 0,0.7431 -0.6024,1.3455 -1.3456,1.3455 -0.7431,0 -1.3455,-0.6024 -1.3455,-1.3455 0,-0.7432 0.6024,-1.3456 1.3455,-1.3456z"/>
   <path id="_522340576" class="fil5" d="M2.8649 23.2184c0.1662,0 0.3009,0.1347 0.3009,0.301 0,0.1662 -0.1347,0.3009 -0.3009,0.3009 -0.1663,0 -0.301,-0.1347 -0.301,-0.3009 0,-0.1663 0.1347,-0.301 0.301,-0.301z"/>
   <path id="_522339880" class="fil5" d="M6.1044 23.5563c0.652,0 1.1806,0.5286 1.1806,1.1806 0,0.652 -0.5286,1.1805 -1.1806,1.1805 -0.652,0 -1.1805,-0.5285 -1.1805,-1.1805 0,-0.652 0.5285,-1.1806 1.1805,-1.1806z"/>
  </g>
  <path class="fil8" d="M23.0769 20.9113c-0.0391,0.0167 -0.0847,0.0315 -0.1367,0.0443 -0.052,0.0128 -0.1078,0.0224 -0.1668,0.0295 -0.0591,0.0071 -0.1181,0.0109 -0.1778,0.0109 -0.1791,0 -0.3344,-0.0398 -0.4653,-0.1174 -0.1309,-0.0783 -0.2323,-0.1938 -0.3042,-0.3466 -0.0712,-0.1521 -0.1078,-0.3408 -0.1085,-0.5641 0.0007,-0.1791 0.0238,-0.3344 0.0693,-0.4666 0.045,-0.1322 0.1079,-0.2413 0.1881,-0.3279 0.0809,-0.086 0.1739,-0.1509 0.2804,-0.1932 0.1066,-0.0424 0.2208,-0.0636 0.344,-0.0636 0.1021,0.0007 0.1919,0.0103 0.2702,0.0296 0.0783,0.0186 0.1457,0.0404 0.2035,0.0667l0.1117 -0.4621c-0.0283,-0.016 -0.07,-0.0327 -0.1252,-0.0494 -0.0552,-0.0173 -0.1239,-0.0314 -0.2054,-0.0436 -0.0808,-0.0122 -0.1752,-0.018 -0.2817,-0.0186 -0.1579,0 -0.3087,0.0211 -0.4525,0.0628 -0.1444,0.0418 -0.2766,0.104 -0.3979,0.1874 -0.1213,0.0835 -0.2265,0.1881 -0.3164,0.3126 -0.0898,0.1251 -0.1598,0.2708 -0.2092,0.4364 -0.0501,0.1662 -0.0751,0.353 -0.0757,0.5603 0,0.2201 0.0308,0.421 0.0911,0.602 0.0603,0.181 0.1489,0.3369 0.2663,0.4685 0.1175,0.1315 0.2619,0.2323 0.4339,0.3035 0.1714,0.0713 0.3684,0.1079 0.5911,0.1085 0.102,-0.0006 0.1951,-0.0058 0.2798,-0.0173 0.0854,-0.0109 0.1592,-0.0244 0.2233,-0.0417 0.0636,-0.0167 0.1136,-0.0341 0.1515,-0.0527l-0.0809 -0.4582zm1.6135 -2.476c-0.1553,0.0006 -0.2978,0.0257 -0.4287,0.0745 -0.1303,0.0494 -0.2471,0.12 -0.3504,0.2111 -0.1027,0.0918 -0.19,0.2002 -0.2625,0.3273 -0.0719,0.1271 -0.1264,0.2683 -0.1643,0.4236 -0.0379,0.1553 -0.0571,0.3222 -0.0571,0.4999 0,0.172 0.0173,0.335 0.0526,0.4871 0.0347,0.1521 0.0854,0.2914 0.1534,0.4166 0.0674,0.1251 0.1508,0.2336 0.2496,0.3241 0.0989,0.0911 0.2131,0.1611 0.3415,0.2105 0.1283,0.0494 0.2708,0.0744 0.4274,0.0751 0.1848,0 0.3536,-0.0328 0.507,-0.0989 0.1534,-0.0654 0.2862,-0.1636 0.3986,-0.2939 0.1123,-0.1303 0.1989,-0.2933 0.2605,-0.4878 0.061,-0.1944 0.0924,-0.421 0.0931,-0.679 0,-0.1585 -0.0161,-0.3112 -0.0482,-0.4582 -0.032,-0.147 -0.0808,-0.2824 -0.145,-0.4075 -0.0648,-0.1245 -0.1457,-0.2343 -0.2432,-0.3274 -0.0976,-0.093 -0.2118,-0.1662 -0.3421,-0.2182 -0.1309,-0.0519 -0.2779,-0.0783 -0.4422,-0.0789zm-0.0154 0.4659c0.0873,0.0007 0.1649,0.0193 0.2336,0.0565 0.0687,0.0372 0.1284,0.0892 0.1797,0.156 0.0507,0.0661 0.0931,0.1437 0.1264,0.2317 0.0334,0.0879 0.0584,0.1835 0.0751,0.2855 0.0161,0.1027 0.0244,0.2086 0.0244,0.3177 0,0.1502 -0.0135,0.2901 -0.0411,0.4191 -0.0269,0.129 -0.0673,0.2426 -0.1213,0.3402 -0.0539,0.0975 -0.1212,0.1732 -0.2015,0.2278 -0.0802,0.0545 -0.1733,0.0828 -0.2791,0.0834 -0.1053,-0.0006 -0.1977,-0.0289 -0.2779,-0.0834 -0.0809,-0.0552 -0.1483,-0.1309 -0.2028,-0.2278 -0.0552,-0.097 -0.0963,-0.2093 -0.1239,-0.337 -0.0282,-0.1277 -0.0424,-0.2644 -0.0424,-0.4107 0,-0.1091 0.0084,-0.2157 0.0251,-0.319 0.016,-0.1027 0.0417,-0.1989 0.0751,-0.2881 0.034,-0.0899 0.077,-0.1682 0.1283,-0.2356 0.052,-0.0674 0.113,-0.1206 0.1829,-0.1585 0.0706,-0.0379 0.1502,-0.0571 0.2394,-0.0578zm3.2346 -0.3273c-0.0462,-0.0237 -0.1008,-0.0455 -0.1637,-0.0661 -0.0629,-0.0199 -0.1341,-0.0366 -0.213,-0.0494 -0.0783,-0.0122 -0.165,-0.0186 -0.2587,-0.0192 -0.1598,0.0006 -0.3029,0.0224 -0.4293,0.0661 -0.1258,0.043 -0.2324,0.1033 -0.3203,0.1809 -0.0879,0.0777 -0.1553,0.1688 -0.2015,0.2728 -0.0456,0.104 -0.0687,0.2169 -0.0693,0.3389 0.0006,0.1283 0.0301,0.2445 0.0886,0.3497 0.0584,0.1053 0.1411,0.1996 0.249,0.2837 0.1078,0.0834 0.2368,0.1572 0.3863,0.2214 0.1091,0.0469 0.1977,0.0937 0.2676,0.1412 0.0694,0.0469 0.1201,0.0982 0.1534,0.1528 0.0328,0.0551 0.0494,0.1174 0.0488,0.1874 0,0.0738 -0.018,0.1379 -0.0545,0.1931 -0.0366,0.0552 -0.0905,0.0989 -0.1618,0.1297 -0.0712,0.0308 -0.1598,0.0462 -0.265,0.0468 -0.0803,0 -0.1592,-0.0077 -0.2375,-0.0224 -0.0783,-0.0148 -0.1521,-0.0341 -0.2208,-0.0591 -0.0686,-0.025 -0.129,-0.0526 -0.181,-0.0841l-0.1116 0.4775c0.0475,0.0289 0.1091,0.0559 0.1855,0.0809 0.0763,0.0244 0.161,0.0449 0.2541,0.0603 0.0937,0.0161 0.1893,0.0238 0.2882,0.0244 0.1726,-0.0006 0.3253,-0.0231 0.4595,-0.0667 0.1335,-0.0443 0.2464,-0.1066 0.3382,-0.1868 0.0918,-0.0796 0.1617,-0.1739 0.2092,-0.2824 0.0475,-0.1084 0.0713,-0.2278 0.0713,-0.3575 0.0006,-0.1296 -0.0238,-0.247 -0.0726,-0.3523 -0.0487,-0.1059 -0.1232,-0.2015 -0.2246,-0.2875 -0.1014,-0.086 -0.2304,-0.1643 -0.3883,-0.2343 -0.0905,-0.041 -0.1675,-0.0789 -0.2323,-0.1142 -0.0642,-0.0353 -0.1168,-0.07 -0.1572,-0.1053 -0.0411,-0.0353 -0.0713,-0.0731 -0.0905,-0.1142 -0.0186,-0.0411 -0.0283,-0.0873 -0.0283,-0.1399 0,-0.0565 0.0154,-0.1091 0.0462,-0.1585 0.0309,-0.0494 0.0783,-0.0899 0.1425,-0.1207 0.0642,-0.0314 0.1464,-0.0475 0.2465,-0.0481 0.0808,0.0006 0.1546,0.0077 0.2214,0.0205 0.0667,0.0135 0.1258,0.0302 0.1771,0.0494 0.0514,0.0193 0.0944,0.0386 0.129,0.0572l0.1194 -0.466zm2.3374 -0.0924l-2.0293 0 0 0.4929 0.7277 0 0 2.4683 0.5699 0 0 -2.4683 0.7317 0 0 -0.4929zm1.598 0l-0.7162 0 -0.8394 2.9612 0.5776 0 0.2041 -0.7817 0.7932 0 0.2118 0.7817 0.5968 0 -0.8279 -2.9612zm-0.6931 1.7482l0.1772 -0.6777c0.0141,-0.0584 0.0288,-0.1226 0.0442,-0.1919 0.0154,-0.0693 0.0302,-0.1393 0.045,-0.2092 0.0147,-0.0706 0.0288,-0.1373 0.0417,-0.1996l0.0115 0c0.0129,0.061 0.027,0.1264 0.0417,0.1957 0.0148,0.07 0.0302,0.1399 0.0463,0.2099 0.016,0.0706 0.0314,0.1367 0.0468,0.199l0.1771 0.6738 -0.6315 0zm3.4695 -1.6558c-0.0462,-0.0237 -0.1008,-0.0455 -0.1637,-0.0661 -0.0629,-0.0199 -0.1341,-0.0366 -0.213,-0.0494 -0.0783,-0.0122 -0.165,-0.0186 -0.2587,-0.0192 -0.1598,0.0006 -0.3029,0.0224 -0.4293,0.0661 -0.1258,0.043 -0.2324,0.1033 -0.3203,0.1809 -0.0879,0.0777 -0.1553,0.1688 -0.2015,0.2728 -0.0456,0.104 -0.0687,0.2169 -0.0693,0.3389 0.0006,0.1283 0.0301,0.2445 0.0886,0.3497 0.0584,0.1053 0.1411,0.1996 0.249,0.2837 0.1078,0.0834 0.2368,0.1572 0.3863,0.2214 0.1091,0.0469 0.1977,0.0937 0.2676,0.1412 0.0694,0.0469 0.1201,0.0982 0.1534,0.1528 0.0328,0.0551 0.0494,0.1174 0.0488,0.1874 0,0.0738 -0.018,0.1379 -0.0545,0.1931 -0.0366,0.0552 -0.0905,0.0989 -0.1618,0.1297 -0.0712,0.0308 -0.1598,0.0462 -0.265,0.0468 -0.0803,0 -0.1592,-0.0077 -0.2375,-0.0224 -0.0783,-0.0148 -0.1521,-0.0341 -0.2208,-0.0591 -0.0686,-0.025 -0.129,-0.0526 -0.181,-0.0841l-0.1116 0.4775c0.0475,0.0289 0.1091,0.0559 0.1855,0.0809 0.0763,0.0244 0.161,0.0449 0.2541,0.0603 0.0937,0.0161 0.1893,0.0238 0.2882,0.0244 0.1726,-0.0006 0.3253,-0.0231 0.4595,-0.0667 0.1335,-0.0443 0.2464,-0.1066 0.3382,-0.1868 0.0918,-0.0796 0.1617,-0.1739 0.2092,-0.2824 0.0475,-0.1084 0.0713,-0.2278 0.0713,-0.3575 0.0006,-0.1296 -0.0238,-0.247 -0.0726,-0.3523 -0.0487,-0.1059 -0.1232,-0.2015 -0.2246,-0.2875 -0.1014,-0.086 -0.2304,-0.1643 -0.3883,-0.2343 -0.0905,-0.041 -0.1675,-0.0789 -0.2323,-0.1142 -0.0642,-0.0353 -0.1168,-0.07 -0.1572,-0.1053 -0.0411,-0.0353 -0.0713,-0.0731 -0.0905,-0.1142 -0.0186,-0.0411 -0.0283,-0.0873 -0.0283,-0.1399 0,-0.0565 0.0154,-0.1091 0.0462,-0.1585 0.0309,-0.0494 0.0783,-0.0899 0.1425,-0.1207 0.0642,-0.0314 0.1464,-0.0475 0.2465,-0.0481 0.0808,0.0006 0.1546,0.0077 0.2214,0.0205 0.0667,0.0135 0.1258,0.0302 0.1771,0.0494 0.0514,0.0193 0.0944,0.0386 0.129,0.0572l0.1194 -0.466z"/>
  <path class="fil8" d="M23.0841 25.0667l-1.3593 0 0 -0.0077 0.2195 -0.2304c0.1681,-0.1669 0.3177,-0.3229 0.4486,-0.4685 0.1316,-0.1457 0.2426,-0.2856 0.3344,-0.4198 0.0911,-0.1335 0.1604,-0.2669 0.2079,-0.3985 0.0475,-0.1316 0.0719,-0.267 0.0719,-0.4056 0,-0.0725 -0.0084,-0.147 -0.0263,-0.2214 -0.0174,-0.0751 -0.0456,-0.147 -0.0841,-0.2163 -0.0379,-0.0687 -0.0879,-0.1303 -0.1489,-0.1842 -0.0616,-0.0546 -0.1354,-0.0976 -0.2227,-0.1296 -0.0873,-0.0315 -0.188,-0.0475 -0.3036,-0.0482 -0.0975,0.0007 -0.1899,0.0129 -0.2772,0.0379 -0.0873,0.025 -0.1682,0.0584 -0.2426,0.1014 -0.0738,0.0423 -0.1412,0.0911 -0.2002,0.1457l0.0885 0.1611c0.0482,-0.0405 0.1027,-0.0796 0.1637,-0.1168 0.0616,-0.0373 0.1277,-0.0681 0.1989,-0.0918 0.0713,-0.0244 0.1457,-0.0366 0.2227,-0.0372 0.113,0.0006 0.208,0.0186 0.2837,0.0539 0.0764,0.0353 0.1367,0.0834 0.1816,0.1437 0.0443,0.0597 0.0764,0.1277 0.0956,0.2028 0.0193,0.0751 0.0289,0.1534 0.0283,0.2336 0,0.1226 -0.0218,0.2433 -0.0655,0.3626 -0.0443,0.1194 -0.111,0.2439 -0.2009,0.3729 -0.0892,0.1297 -0.2028,0.2696 -0.3395,0.421 -0.1367,0.1508 -0.2984,0.3196 -0.4839,0.5051l-0.2618 0.2805 0 0.1463 1.6712 0 0 -0.1925zm1.2591 0.2387c0.1862,0 0.3466,-0.0552 0.482,-0.1669 0.1354,-0.111 0.2407,-0.2791 0.3145,-0.5031 0.0738,-0.2246 0.1117,-0.507 0.1123,-0.8472 -0.0006,-0.2451 -0.0218,-0.4588 -0.0635,-0.6411 -0.0424,-0.1823 -0.1014,-0.3331 -0.1778,-0.4531 -0.077,-0.12 -0.1675,-0.2092 -0.2721,-0.2689 -0.1046,-0.0591 -0.2195,-0.0886 -0.3453,-0.0886 -0.1258,-0.0006 -0.2439,0.0283 -0.3543,0.086 -0.1104,0.0584 -0.2073,0.1476 -0.2913,0.2689 -0.0848,0.1213 -0.1502,0.2773 -0.1983,0.4672 -0.0475,0.1894 -0.0719,0.4166 -0.0726,0.6797 0.0007,0.2503 0.0238,0.4672 0.0681,0.6514 0.0449,0.1842 0.1071,0.3369 0.1861,0.4576 0.0789,0.1206 0.1713,0.2105 0.2753,0.2695 0.1046,0.0591 0.2169,0.0886 0.3369,0.0886zm0.0116 -0.1964c-0.0982,-0.0006 -0.1868,-0.0314 -0.2644,-0.093 -0.0777,-0.061 -0.1438,-0.1489 -0.199,-0.2632 -0.0545,-0.1142 -0.0962,-0.2509 -0.1245,-0.4107 -0.0289,-0.1592 -0.0436,-0.3376 -0.0436,-0.5346 0.0006,-0.1977 0.0167,-0.3755 0.0487,-0.5321 0.0328,-0.1572 0.0777,-0.2907 0.1361,-0.4011 0.0584,-0.111 0.1264,-0.1951 0.2054,-0.2535 0.0783,-0.0584 0.1636,-0.0873 0.2567,-0.0879 0.1123,0.0006 0.2092,0.0321 0.2901,0.0943 0.0808,0.0623 0.1469,0.1502 0.1983,0.2645 0.052,0.1136 0.0898,0.2477 0.1142,0.403 0.0244,0.1553 0.0366,0.326 0.0366,0.5128 0,0.1444 -0.0077,0.2817 -0.0231,0.412 -0.0154,0.1297 -0.0391,0.249 -0.0719,0.3575 -0.0327,0.1078 -0.0744,0.2021 -0.1264,0.2811 -0.0513,0.0796 -0.113,0.1412 -0.1848,0.1848 -0.0719,0.0437 -0.1547,0.0655 -0.2484,0.0661zm2.3027 0.1502l0 -2.8765 -0.2118 0 -0.5545 0.3273 0.0616 0.181 0.4621 -0.2772 0.0077 0 0 2.6454 0.2349 0zm1.1128 -2.6801l1.4055 0 0 0.0077 -1.2399 2.6724 0.2387 0 1.2438 -2.7224 0 -0.1541 -1.6481 0 0 0.1964z"/>
  <g id="_522369520">
   <g>
    <path id="_522340888" class="fil0" d="M20.4786 43.595c0,0 -0.4345,0.8484 -1.0553,1.2622 -3.0066,2.0045 -7.18,0.4698 -7.18,-3.2279 0,0 0,-1.3242 0.538,-2.2968 0,0 -3.828,-0.538 -3.9522,3.7246 0,0 0.3311,3.2072 3.6211,5.2557 0,0 2.9796,2.0691 7.0145,0.5586 0,0 2.0485,-0.6414 3.5176,-2.6071 0,0 1.345,-1.4691 -0.1241,-2.8762 -0.6729,-0.6026 -1.9117,-0.5094 -2.3796,0.2069z"/>
    <path id="_522341320" class="fil1" d="M13.1773 48.7072c1.1206,0.5142 3.4414,1.2297 6.2874,0.1642 0,0 0.4557,-0.1427 1.0913,-0.4996 -0.7708,-1.1616 -2.0902,-1.9276 -3.5887,-1.9276 -1.6384,0 -3.063,0.9156 -3.79,2.263z"/>
    <path id="_522341608" class="fil2" d="M20.2803 43.9288c-0.1853,0.2836 -0.4883,0.6827 -0.857,0.9284 -0.2124,0.1417 -0.4977,0.3052 -0.8307,0.4572 -0.122,0.2853 -0.1895,0.5993 -0.1895,0.9291 0,1.1201 0.7786,2.0582 1.824,2.303 0.7306,-0.3662 1.8523,-1.074 2.7552,-2.2822 0,0 0.0622,-0.068 0.1452,-0.1885 -0.0861,-1.228 -1.1094,-2.1975 -2.3592,-2.1975 -0.1673,0 -0.3305,0.0175 -0.488,0.0505z"/>
    <path id="_522341536" class="fil2" d="M21.7537 47.5503c0.4178,-0.3458 0.8431,-0.7702 1.2286,-1.286 0,0 1.0614,-1.1596 0.2682,-2.4049 -0.099,-0.0147 -0.2002,-0.0224 -0.3033,-0.0224 -1.1313,0 -2.0485,0.9171 -2.0485,2.0484 0,0.686 0.3373,1.2932 0.855,1.6649z"/>
    <path id="_522341440" class="fil1" d="M11.1736 37.6708c0.8634,0 1.5894,0.5876 1.8003,1.3846 -0.4,0.5802 -0.6603,1.2641 -0.7322,2.0032 -0.3024,0.2121 -0.6707,0.3367 -1.0681,0.3367 -1.0285,0 -1.8623,-0.8338 -1.8623,-1.8623 0,-1.0285 0.8338,-1.8622 1.8623,-1.8622z"/>
    <path id="_522341752" class="fil1" d="M15.3739 33.7325c0.0761,0.2033 0.1179,0.4234 0.1179,0.6533 0,1.0285 -0.8338,1.8623 -1.8623,1.8623 -0.7549,0 -1.4048,-0.4492 -1.6972,-1.0948 0.1837,-0.1365 0.3784,-0.2696 0.5847,-0.3981 0,0 1.0954,-0.7603 2.8569,-1.0227z"/>
    <path id="_522342400" class="fil3" d="M19.1115 34.0512c-0.584,0.5823 -1.3899,0.9423 -2.2798,0.9423 -0.9503,0 -1.8046,-0.4105 -2.3955,-1.0637 1.1676,-0.319 2.7946,-0.4804 4.6753,0.1214z"/>
    <path id="_522342448" class="fil4" d="M13.0347 37.0773c0.53,0 0.9829,0.3299 1.1647,0.7955 -0.6384,0.4071 -1.1614,0.9792 -1.509,1.6561 -0.5228,-0.1495 -0.9055,-0.6309 -0.9055,-1.2018 0,-0.6902 0.5596,-1.2498 1.2498,-1.2498z"/>
    <path id="_522342736" class="fil0" d="M8.8411 40.487c0.831,0 1.5046,0.6736 1.5046,1.5046 0,0.8309 -0.6736,1.5045 -1.5046,1.5045 -0.8309,0 -1.5045,-0.6736 -1.5045,-1.5045 0,-0.831 0.6736,-1.5046 1.5045,-1.5046z"/>
    <path id="_522342352" class="fil5" d="M8.2825 36.6654c1.2845,0 2.3258,1.0413 2.3258,2.3258 0,1.2845 -1.0413,2.3258 -2.3258,2.3258 -1.2845,0 -2.3258,-1.0413 -2.3258,-2.3258 0,-1.2845 1.0413,-2.3258 2.3258,-2.3258z"/>
    <path id="_522343024" class="fil5" d="M4.4669 38.1592c0.5216,0 0.9445,0.4228 0.9445,0.9445 0,0.5216 -0.4229,0.9445 -0.9445,0.9445 -0.5217,0 -0.9445,-0.4229 -0.9445,-0.9445 0,-0.5217 0.4228,-0.9445 0.9445,-0.9445z"/>
    <path id="_522342928" class="fil5" d="M10.3847 34.6829c0.5217,0 0.9445,0.4229 0.9445,0.9445 0,0.5217 -0.4228,0.9446 -0.9445,0.9446 -0.5216,0 -0.9445,-0.4229 -0.9445,-0.9446 0,-0.5216 0.4229,-0.9445 0.9445,-0.9445z"/>
    <path id="_522343264" class="fil5" d="M3.8427 40.9075c0.2818,0 0.5103,0.2285 0.5103,0.5103 0,0.2818 -0.2285,0.5102 -0.5103,0.5102 -0.2818,0 -0.5102,-0.2284 -0.5102,-0.5102 0,-0.2818 0.2284,-0.5103 0.5102,-0.5103z"/>
    <path id="_522343552" class="fil5" d="M6.743 43.0697c0.4151,0 0.7517,0.3365 0.7517,0.7517 0,0.4152 -0.3366,0.7517 -0.7517,0.7517 -0.4152,0 -0.7518,-0.3365 -0.7518,-0.7517 0,-0.4152 0.3366,-0.7517 0.7518,-0.7517z"/>
    <path id="_522343624" class="fil5" d="M8.1293 44.6904c0.7657,0 1.3864,0.6207 1.3864,1.3864 0,0.7657 -0.6207,1.3864 -1.3864,1.3864 -0.7657,0 -1.3864,-0.6207 -1.3864,-1.3864 0,-0.7657 0.6207,-1.3864 1.3864,-1.3864z"/>
    <path id="_522343312" class="fil6" d="M10.1985 44.6491c0.9714,0 1.7588,0.7875 1.7588,1.7588 0,0.9714 -0.7874,1.7588 -1.7588,1.7588 -0.9714,0 -1.7588,-0.7874 -1.7588,-1.7588 0,-0.9713 0.7874,-1.7588 1.7588,-1.7588z"/>
    <path id="_522343384" class="fil5" d="M5.6174 44.8139c0.3857,0 0.6984,0.3127 0.6984,0.6984 0,0.3857 -0.3127,0.6984 -0.6984,0.6984 -0.3857,0 -0.6984,-0.3127 -0.6984,-0.6984 0,-0.3857 0.3127,-0.6984 0.6984,-0.6984z"/>
    <path id="_522344200" class="fil5" d="M3.5969 43.1103c0.6433,0 1.1647,0.5215 1.1647,1.1647 0,0.6433 -0.5214,1.1647 -1.1647,1.1647 -0.6432,0 -1.1647,-0.5214 -1.1647,-1.1647 0,-0.6432 0.5215,-1.1647 1.1647,-1.1647z"/>
    <path id="_522344080" class="fil5" d="M1.7425 41.6142c0.5066,0 0.9174,0.4107 0.9174,0.9174 0,0.5066 -0.4108,0.9174 -0.9174,0.9174 -0.5067,0 -0.9174,-0.4108 -0.9174,-0.9174 0,-0.5067 0.4107,-0.9174 0.9174,-0.9174z"/>
    <path id="_522344128" class="fil5" d="M0.9079 45.3043c0.2533,0 0.4587,0.2054 0.4587,0.4587 0,0.2533 -0.2054,0.4587 -0.4587,0.4587 -0.2534,0 -0.4587,-0.2054 -0.4587,-0.4587 0,-0.2533 0.2053,-0.4587 0.4587,-0.4587z"/>
    <path id="_522344344" class="fil5" d="M3.6806 37.3653c0.1829,0 0.3312,0.1483 0.3312,0.3312 0,0.1829 -0.1483,0.3312 -0.3312,0.3312 -0.1829,0 -0.3312,-0.1483 -0.3312,-0.3312 0,-0.1829 0.1483,-0.3312 0.3312,-0.3312z"/>
    <path id="_522343816" class="fil7" d="M5.8112 41.1747c0.7432,0 1.3456,0.6024 1.3456,1.3456 0,0.7431 -0.6024,1.3455 -1.3456,1.3455 -0.7431,0 -1.3455,-0.6024 -1.3455,-1.3455 0,-0.7432 0.6024,-1.3456 1.3455,-1.3456z"/>
    <path id="_522343888" class="fil5" d="M2.7999 39.8199c0.1662,0 0.3009,0.1347 0.3009,0.301 0,0.1662 -0.1347,0.3009 -0.3009,0.3009 -0.1663,0 -0.301,-0.1347 -0.301,-0.3009 0,-0.1663 0.1347,-0.301 0.301,-0.301z"/>
    <path id="_522344536" class="fil5" d="M6.0394 40.1578c0.652,0 1.1806,0.5286 1.1806,1.1806 0,0.652 -0.5286,1.1805 -1.1806,1.1805 -0.652,0 -1.1805,-0.5285 -1.1805,-1.1805 0,-0.652 0.5285,-1.1806 1.1805,-1.1806z"/>
   </g>
   <path id="_522341200" class="fil9" d="M23.0119 37.5128c-0.0391,0.0167 -0.0847,0.0315 -0.1367,0.0443 -0.052,0.0128 -0.1078,0.0224 -0.1668,0.0295 -0.0591,0.0071 -0.1181,0.0109 -0.1778,0.0109 -0.1791,0 -0.3344,-0.0398 -0.4653,-0.1174 -0.1309,-0.0783 -0.2323,-0.1938 -0.3042,-0.3466 -0.0712,-0.1521 -0.1078,-0.3408 -0.1085,-0.5641 0.0007,-0.1791 0.0238,-0.3344 0.0693,-0.4666 0.045,-0.1322 0.1079,-0.2413 0.1881,-0.3279 0.0809,-0.086 0.1739,-0.1509 0.2804,-0.1932 0.1066,-0.0424 0.2208,-0.0636 0.344,-0.0636 0.1021,0.0007 0.1919,0.0103 0.2702,0.0296 0.0783,0.0186 0.1457,0.0404 0.2035,0.0667l0.1117 -0.4621c-0.0283,-0.016 -0.07,-0.0327 -0.1252,-0.0494 -0.0552,-0.0173 -0.1239,-0.0314 -0.2054,-0.0436 -0.0808,-0.0122 -0.1752,-0.018 -0.2817,-0.0186 -0.1579,0 -0.3087,0.0211 -0.4525,0.0628 -0.1444,0.0418 -0.2766,0.104 -0.3979,0.1874 -0.1213,0.0835 -0.2265,0.1881 -0.3164,0.3126 -0.0898,0.1251 -0.1598,0.2708 -0.2092,0.4364 -0.0501,0.1662 -0.0751,0.353 -0.0757,0.5603 0,0.2201 0.0308,0.421 0.0911,0.602 0.0603,0.181 0.1489,0.3369 0.2663,0.4685 0.1175,0.1315 0.2619,0.2323 0.4339,0.3035 0.1714,0.0713 0.3684,0.1079 0.5911,0.1085 0.102,-0.0006 0.1951,-0.0058 0.2798,-0.0173 0.0854,-0.0109 0.1592,-0.0244 0.2233,-0.0417 0.0636,-0.0167 0.1136,-0.0341 0.1515,-0.0527l-0.0809 -0.4582zm1.6135 -2.476c-0.1553,0.0006 -0.2978,0.0257 -0.4287,0.0745 -0.1303,0.0494 -0.2471,0.12 -0.3504,0.2111 -0.1027,0.0918 -0.19,0.2002 -0.2625,0.3273 -0.0719,0.1271 -0.1264,0.2683 -0.1643,0.4236 -0.0379,0.1553 -0.0571,0.3222 -0.0571,0.4999 0,0.172 0.0173,0.335 0.0526,0.4871 0.0347,0.1521 0.0854,0.2914 0.1534,0.4166 0.0674,0.1251 0.1508,0.2336 0.2496,0.3241 0.0989,0.0911 0.2131,0.1611 0.3415,0.2105 0.1283,0.0494 0.2708,0.0744 0.4274,0.0751 0.1848,0 0.3536,-0.0328 0.507,-0.0989 0.1534,-0.0654 0.2862,-0.1636 0.3986,-0.2939 0.1123,-0.1303 0.1989,-0.2933 0.2605,-0.4878 0.061,-0.1944 0.0924,-0.421 0.0931,-0.679 0,-0.1585 -0.0161,-0.3112 -0.0482,-0.4582 -0.032,-0.147 -0.0808,-0.2824 -0.145,-0.4075 -0.0648,-0.1245 -0.1457,-0.2343 -0.2432,-0.3274 -0.0976,-0.093 -0.2118,-0.1662 -0.3421,-0.2182 -0.1309,-0.0519 -0.2779,-0.0783 -0.4422,-0.0789zm-0.0154 0.4659c0.0873,0.0007 0.1649,0.0193 0.2336,0.0565 0.0687,0.0372 0.1284,0.0892 0.1797,0.156 0.0507,0.0661 0.0931,0.1437 0.1264,0.2317 0.0334,0.0879 0.0584,0.1835 0.0751,0.2855 0.0161,0.1027 0.0244,0.2086 0.0244,0.3177 0,0.1502 -0.0135,0.2901 -0.0411,0.4191 -0.0269,0.129 -0.0673,0.2426 -0.1213,0.3402 -0.0539,0.0975 -0.1212,0.1732 -0.2015,0.2278 -0.0802,0.0545 -0.1733,0.0828 -0.2791,0.0834 -0.1053,-0.0006 -0.1977,-0.0289 -0.2779,-0.0834 -0.0809,-0.0552 -0.1483,-0.1309 -0.2028,-0.2278 -0.0552,-0.097 -0.0963,-0.2093 -0.1239,-0.337 -0.0282,-0.1277 -0.0424,-0.2644 -0.0424,-0.4107 0,-0.1091 0.0084,-0.2157 0.0251,-0.319 0.016,-0.1027 0.0417,-0.1989 0.0751,-0.2881 0.034,-0.0899 0.077,-0.1682 0.1283,-0.2356 0.052,-0.0674 0.113,-0.1206 0.1829,-0.1585 0.0706,-0.0379 0.1502,-0.0571 0.2394,-0.0578zm3.2346 -0.3273c-0.0462,-0.0237 -0.1008,-0.0455 -0.1637,-0.0661 -0.0629,-0.0199 -0.1341,-0.0366 -0.213,-0.0494 -0.0783,-0.0122 -0.165,-0.0186 -0.2587,-0.0192 -0.1598,0.0006 -0.3029,0.0224 -0.4293,0.0661 -0.1258,0.043 -0.2324,0.1033 -0.3203,0.1809 -0.0879,0.0777 -0.1553,0.1688 -0.2015,0.2728 -0.0456,0.104 -0.0687,0.2169 -0.0693,0.3389 0.0006,0.1283 0.0301,0.2445 0.0886,0.3497 0.0584,0.1053 0.1411,0.1996 0.249,0.2837 0.1078,0.0834 0.2368,0.1572 0.3863,0.2214 0.1091,0.0469 0.1977,0.0937 0.2676,0.1412 0.0694,0.0469 0.1201,0.0982 0.1534,0.1528 0.0328,0.0551 0.0494,0.1174 0.0488,0.1874 0,0.0738 -0.018,0.1379 -0.0545,0.1931 -0.0366,0.0552 -0.0905,0.0989 -0.1618,0.1297 -0.0712,0.0308 -0.1598,0.0462 -0.265,0.0468 -0.0803,0 -0.1592,-0.0077 -0.2375,-0.0224 -0.0783,-0.0148 -0.1521,-0.0341 -0.2208,-0.0591 -0.0686,-0.025 -0.129,-0.0526 -0.181,-0.0841l-0.1116 0.4775c0.0475,0.0289 0.1091,0.0559 0.1855,0.0809 0.0763,0.0244 0.161,0.0449 0.2541,0.0603 0.0937,0.0161 0.1893,0.0238 0.2882,0.0244 0.1726,-0.0006 0.3253,-0.0231 0.4595,-0.0667 0.1335,-0.0443 0.2464,-0.1066 0.3382,-0.1868 0.0918,-0.0796 0.1617,-0.1739 0.2092,-0.2824 0.0475,-0.1084 0.0713,-0.2278 0.0713,-0.3575 0.0006,-0.1296 -0.0238,-0.247 -0.0726,-0.3523 -0.0487,-0.1059 -0.1232,-0.2015 -0.2246,-0.2875 -0.1014,-0.086 -0.2304,-0.1643 -0.3883,-0.2343 -0.0905,-0.041 -0.1675,-0.0789 -0.2323,-0.1142 -0.0642,-0.0353 -0.1168,-0.07 -0.1572,-0.1053 -0.0411,-0.0353 -0.0713,-0.0731 -0.0905,-0.1142 -0.0186,-0.0411 -0.0283,-0.0873 -0.0283,-0.1399 0,-0.0565 0.0154,-0.1091 0.0462,-0.1585 0.0309,-0.0494 0.0783,-0.0899 0.1425,-0.1207 0.0642,-0.0314 0.1464,-0.0475 0.2465,-0.0481 0.0808,0.0006 0.1546,0.0077 0.2214,0.0205 0.0667,0.0135 0.1258,0.0302 0.1771,0.0494 0.0514,0.0193 0.0944,0.0386 0.129,0.0572l0.1194 -0.466zm2.3374 -0.0924l-2.0293 0 0 0.4929 0.7277 0 0 2.4683 0.5699 0 0 -2.4683 0.7317 0 0 -0.4929zm1.598 0l-0.7162 0 -0.8394 2.9612 0.5776 0 0.2041 -0.7817 0.7932 0 0.2118 0.7817 0.5968 0 -0.8279 -2.9612zm-0.6931 1.7482l0.1772 -0.6777c0.0141,-0.0584 0.0288,-0.1226 0.0442,-0.1919 0.0154,-0.0693 0.0302,-0.1393 0.045,-0.2092 0.0147,-0.0706 0.0288,-0.1373 0.0417,-0.1996l0.0115 0c0.0129,0.061 0.027,0.1264 0.0417,0.1957 0.0148,0.07 0.0302,0.1399 0.0463,0.2099 0.016,0.0706 0.0314,0.1367 0.0468,0.199l0.1771 0.6738 -0.6315 0zm3.4695 -1.6558c-0.0462,-0.0237 -0.1008,-0.0455 -0.1637,-0.0661 -0.0629,-0.0199 -0.1341,-0.0366 -0.213,-0.0494 -0.0783,-0.0122 -0.165,-0.0186 -0.2587,-0.0192 -0.1598,0.0006 -0.3029,0.0224 -0.4293,0.0661 -0.1258,0.043 -0.2324,0.1033 -0.3203,0.1809 -0.0879,0.0777 -0.1553,0.1688 -0.2015,0.2728 -0.0456,0.104 -0.0687,0.2169 -0.0693,0.3389 0.0006,0.1283 0.0301,0.2445 0.0886,0.3497 0.0584,0.1053 0.1411,0.1996 0.249,0.2837 0.1078,0.0834 0.2368,0.1572 0.3863,0.2214 0.1091,0.0469 0.1977,0.0937 0.2676,0.1412 0.0694,0.0469 0.1201,0.0982 0.1534,0.1528 0.0328,0.0551 0.0494,0.1174 0.0488,0.1874 0,0.0738 -0.018,0.1379 -0.0545,0.1931 -0.0366,0.0552 -0.0905,0.0989 -0.1618,0.1297 -0.0712,0.0308 -0.1598,0.0462 -0.265,0.0468 -0.0803,0 -0.1592,-0.0077 -0.2375,-0.0224 -0.0783,-0.0148 -0.1521,-0.0341 -0.2208,-0.0591 -0.0686,-0.025 -0.129,-0.0526 -0.181,-0.0841l-0.1116 0.4775c0.0475,0.0289 0.1091,0.0559 0.1855,0.0809 0.0763,0.0244 0.161,0.0449 0.2541,0.0603 0.0937,0.0161 0.1893,0.0238 0.2882,0.0244 0.1726,-0.0006 0.3253,-0.0231 0.4595,-0.0667 0.1335,-0.0443 0.2464,-0.1066 0.3382,-0.1868 0.0918,-0.0796 0.1617,-0.1739 0.2092,-0.2824 0.0475,-0.1084 0.0713,-0.2278 0.0713,-0.3575 0.0006,-0.1296 -0.0238,-0.247 -0.0726,-0.3523 -0.0487,-0.1059 -0.1232,-0.2015 -0.2246,-0.2875 -0.1014,-0.086 -0.2304,-0.1643 -0.3883,-0.2343 -0.0905,-0.041 -0.1675,-0.0789 -0.2323,-0.1142 -0.0642,-0.0353 -0.1168,-0.07 -0.1572,-0.1053 -0.0411,-0.0353 -0.0713,-0.0731 -0.0905,-0.1142 -0.0186,-0.0411 -0.0283,-0.0873 -0.0283,-0.1399 0,-0.0565 0.0154,-0.1091 0.0462,-0.1585 0.0309,-0.0494 0.0783,-0.0899 0.1425,-0.1207 0.0642,-0.0314 0.1464,-0.0475 0.2465,-0.0481 0.0808,0.0006 0.1546,0.0077 0.2214,0.0205 0.0667,0.0135 0.1258,0.0302 0.1771,0.0494 0.0514,0.0193 0.0944,0.0386 0.129,0.0572l0.1194 -0.466z"/>
   <path id="_522344752" class="fil10" d="M23.0191 41.6682l-1.3593 0 0 -0.0077 0.2195 -0.2304c0.1681,-0.1669 0.3177,-0.3229 0.4486,-0.4685 0.1316,-0.1457 0.2426,-0.2856 0.3344,-0.4198 0.0911,-0.1335 0.1604,-0.2669 0.2079,-0.3985 0.0475,-0.1316 0.0719,-0.267 0.0719,-0.4056 0,-0.0725 -0.0084,-0.147 -0.0263,-0.2214 -0.0174,-0.0751 -0.0456,-0.147 -0.0841,-0.2163 -0.0379,-0.0687 -0.0879,-0.1303 -0.1489,-0.1842 -0.0616,-0.0546 -0.1354,-0.0976 -0.2227,-0.1296 -0.0873,-0.0315 -0.188,-0.0475 -0.3036,-0.0482 -0.0975,0.0007 -0.1899,0.0129 -0.2772,0.0379 -0.0873,0.025 -0.1682,0.0584 -0.2426,0.1014 -0.0738,0.0423 -0.1412,0.0911 -0.2002,0.1457l0.0885 0.1611c0.0482,-0.0405 0.1027,-0.0796 0.1637,-0.1168 0.0616,-0.0373 0.1277,-0.0681 0.1989,-0.0918 0.0713,-0.0244 0.1457,-0.0366 0.2227,-0.0372 0.113,0.0006 0.208,0.0186 0.2837,0.0539 0.0764,0.0353 0.1367,0.0834 0.1816,0.1437 0.0443,0.0597 0.0764,0.1277 0.0956,0.2028 0.0193,0.0751 0.0289,0.1534 0.0283,0.2336 0,0.1226 -0.0218,0.2433 -0.0655,0.3626 -0.0443,0.1194 -0.111,0.2439 -0.2009,0.3729 -0.0892,0.1297 -0.2028,0.2696 -0.3395,0.421 -0.1367,0.1508 -0.2984,0.3196 -0.4839,0.5051l-0.2618 0.2805 0 0.1463 1.6712 0 0 -0.1925zm1.2591 0.2387c0.1862,0 0.3466,-0.0552 0.482,-0.1669 0.1354,-0.111 0.2407,-0.2791 0.3145,-0.5031 0.0738,-0.2246 0.1117,-0.507 0.1123,-0.8472 -0.0006,-0.2451 -0.0218,-0.4588 -0.0635,-0.6411 -0.0424,-0.1823 -0.1014,-0.3331 -0.1778,-0.4531 -0.077,-0.12 -0.1675,-0.2092 -0.2721,-0.2689 -0.1046,-0.0591 -0.2195,-0.0886 -0.3453,-0.0886 -0.1258,-0.0006 -0.2439,0.0283 -0.3543,0.086 -0.1104,0.0584 -0.2073,0.1476 -0.2913,0.2689 -0.0848,0.1213 -0.1502,0.2773 -0.1983,0.4672 -0.0475,0.1894 -0.0719,0.4166 -0.0726,0.6797 0.0007,0.2503 0.0238,0.4672 0.0681,0.6514 0.0449,0.1842 0.1071,0.3369 0.1861,0.4576 0.0789,0.1206 0.1713,0.2105 0.2753,0.2695 0.1046,0.0591 0.2169,0.0886 0.3369,0.0886zm0.0116 -0.1964c-0.0982,-0.0006 -0.1868,-0.0314 -0.2644,-0.093 -0.0777,-0.061 -0.1438,-0.1489 -0.199,-0.2632 -0.0545,-0.1142 -0.0962,-0.2509 -0.1245,-0.4107 -0.0289,-0.1592 -0.0436,-0.3376 -0.0436,-0.5346 0.0006,-0.1977 0.0167,-0.3755 0.0487,-0.5321 0.0328,-0.1572 0.0777,-0.2907 0.1361,-0.4011 0.0584,-0.111 0.1264,-0.1951 0.2054,-0.2535 0.0783,-0.0584 0.1636,-0.0873 0.2567,-0.0879 0.1123,0.0006 0.2092,0.0321 0.2901,0.0943 0.0808,0.0623 0.1469,0.1502 0.1983,0.2645 0.052,0.1136 0.0898,0.2477 0.1142,0.403 0.0244,0.1553 0.0366,0.326 0.0366,0.5128 0,0.1444 -0.0077,0.2817 -0.0231,0.412 -0.0154,0.1297 -0.0391,0.249 -0.0719,0.3575 -0.0327,0.1078 -0.0744,0.2021 -0.1264,0.2811 -0.0513,0.0796 -0.113,0.1412 -0.1848,0.1848 -0.0719,0.0437 -0.1547,0.0655 -0.2484,0.0661zm2.3027 0.1502l0 -2.8765 -0.2118 0 -0.5545 0.3273 0.0616 0.181 0.4621 -0.2772 0.0077 0 0 2.6454 0.2349 0zm1.1128 -2.6801l1.4055 0 0 0.0077 -1.2399 2.6724 0.2387 0 1.2438 -2.7224 0 -0.1541 -1.6481 0 0 0.1964z"/>
  </g>
 </g>
</svg>
