<?xml version="1.0" encoding="UTF-8"?>
<!DOCTYPE svg PUBLIC "-//W3C//DTD SVG 1.1//EN" "http://www.w3.org/Graphics/SVG/1.1/DTD/svg11.dtd">
<!-- Creator: CorelDRAW -->
<svg xmlns="http://www.w3.org/2000/svg" xml:space="preserve" width="210mm" height="297mm" style="shape-rendering:geometricPrecision; text-rendering:geometricPrecision; image-rendering:optimizeQuality; fill-rule:evenodd; clip-rule:evenodd"
viewBox="0 0 210 297"
 xmlns:xlink="http://www.w3.org/1999/xlink">
 <defs>
  <style type="text/css">
   <![CDATA[
    .fil3 {fill:#0F7ABD}
    .fil0 {fill:#1FA1D9}
    .fil2 {fill:#5FBD57}
    .fil1 {fill:#F39431}
    .fil5 {fill:#EBECEC;fill-rule:nonzero}
    .fil4 {fill:#4D4D4D;fill-rule:nonzero}
   ]]>
  </style>
 </defs>
 <g id="Layer_x0020_1">
  <metadata id="CorelCorpID_0Corel-Layer"/>
  <g id="_405491424">
   <path id="_400703096" class="fil0" d="M10.1128 1.4358c0,0 -5.7915,-2.0808 -9.0037,2.5876 -3.2121,4.6684 3.3787,13.656 11.2904,11.5448 0.706,-0.2202 3.2908,-0.9641 4.2362,-4.1356 -3.4878,4.65 -12.2111,1.1488 -13.1807,-4.1908 -0.4288,-2.3612 -0.3766,-6.3626 6.6578,-5.806z"/>
   <path id="_405491496" class="fil1" d="M9.803 4.8497l-1.7506 -2.4853 -3.5195 1.0877c0,0 -0.7866,0.8055 -0.6013,3.0783l5.8714 -1.6807z"/>
   <path id="_405491568" class="fil2" d="M4.0628 7.2443l8.5867 -2.5782 1.8457 2.5083 -8.9007 2.9944c0,0 -1.2725,-1.3773 -1.5317,-2.9245z"/>
   <path id="_405491088" class="fil3" d="M6.2822 10.7787l9.4873 -3.0494 -0.3968 -0.7414 4.6676 0.6847 -2.0347 3.2927 -0.5178 -0.8198 -7.7072 2.5128c0,0 -2.1245,-0.6339 -3.4984,-1.8796z"/>
   <path id="_405491304" class="fil4" d="M17.1841 2.6593c-0.0357,0.0151 -0.0771,0.0285 -0.1243,0.0402 -0.0473,0.0116 -0.098,0.0204 -0.1516,0.0268 -0.0537,0.0064 -0.1073,0.0099 -0.1616,0.0099 -0.1627,0 -0.3038,-0.0361 -0.4228,-0.1067 -0.119,-0.0712 -0.2112,-0.1761 -0.2765,-0.3149 -0.0647,-0.1383 -0.098,-0.3097 -0.0986,-0.5127 0.0006,-0.1627 0.0217,-0.3038 0.063,-0.424 0.0408,-0.1202 0.098,-0.2192 0.1709,-0.298 0.0735,-0.0782 0.1581,-0.1371 0.2549,-0.1756 0.0968,-0.0384 0.2006,-0.0577 0.3126,-0.0577 0.0928,0.0006 0.1744,0.0093 0.2455,0.0268 0.0712,0.0169 0.1324,0.0368 0.1849,0.0607l0.1015 -0.42c-0.0256,-0.0145 -0.0636,-0.0297 -0.1137,-0.0449 -0.0502,-0.0157 -0.1126,-0.0285 -0.1867,-0.0396 -0.0734,-0.0111 -0.1592,-0.0164 -0.256,-0.0169 -0.1435,0 -0.2805,0.0193 -0.4112,0.0571 -0.1312,0.038 -0.2513,0.0945 -0.3615,0.1704 -0.1103,0.0758 -0.2059,0.1708 -0.2876,0.284 -0.0816,0.1137 -0.1452,0.246 -0.1901,0.3966 -0.0455,0.151 -0.0682,0.3207 -0.0688,0.5091 0,0.2 0.028,0.3826 0.0828,0.5471 0.0548,0.1644 0.1353,0.3062 0.2421,0.4258 0.1067,0.1195 0.2379,0.2111 0.3942,0.2758 0.1557,0.0648 0.3348,0.098 0.5371,0.0986 0.0928,-0.0006 0.1773,-0.0053 0.2543,-0.0158 0.0776,-0.0099 0.1446,-0.0222 0.2029,-0.0379 0.0578,-0.0152 0.1033,-0.0309 0.1377,-0.0478l-0.0734 -0.4164zm1.4661 -2.2501c-0.1412,0.0006 -0.2707,0.0233 -0.3896,0.0677 -0.1184,0.0449 -0.2246,0.109 -0.3184,0.1918 -0.0933,0.0834 -0.1727,0.182 -0.2385,0.2975 -0.0654,0.1154 -0.115,0.2437 -0.1493,0.3849 -0.0345,0.1411 -0.052,0.2927 -0.052,0.4543 0,0.1563 0.0157,0.3045 0.0478,0.4427 0.0316,0.1382 0.0776,0.2648 0.1395,0.3785 0.0612,0.1137 0.137,0.2123 0.2268,0.2946 0.0898,0.0827 0.1936,0.1463 0.3103,0.1912 0.1166,0.045 0.2461,0.0677 0.3884,0.0682 0.168,0 0.3214,-0.0297 0.4607,-0.0898 0.1395,-0.0595 0.2602,-0.1487 0.3622,-0.2671 0.1021,-0.1184 0.1808,-0.2665 0.2368,-0.4432 0.0555,-0.1768 0.084,-0.3827 0.0846,-0.6171 0,-0.144 -0.0146,-0.2829 -0.0437,-0.4164 -0.0292,-0.1336 -0.0735,-0.2566 -0.1318,-0.3704 -0.0589,-0.1131 -0.1324,-0.2128 -0.2211,-0.2974 -0.0886,-0.0845 -0.1924,-0.151 -0.3108,-0.1983 -0.119,-0.0472 -0.2526,-0.0711 -0.4019,-0.0717zm-0.014 0.4234c0.0793,0.0006 0.1499,0.0175 0.2123,0.0513 0.0624,0.0338 0.1166,0.0811 0.1633,0.1418 0.046,0.06 0.0846,0.1306 0.1149,0.2105 0.0303,0.0799 0.053,0.1668 0.0682,0.2595 0.0146,0.0934 0.0222,0.1896 0.0222,0.2887 0,0.1365 -0.0123,0.2637 -0.0374,0.3809 -0.0244,0.1172 -0.0612,0.2204 -0.1102,0.309 -0.0489,0.0887 -0.1102,0.1575 -0.1831,0.2071 -0.0729,0.0496 -0.1575,0.0752 -0.2537,0.0759 -0.0957,-0.0007 -0.1797,-0.0263 -0.2526,-0.0759 -0.0734,-0.0502 -0.1347,-0.119 -0.1842,-0.2071 -0.0501,-0.088 -0.0875,-0.19 -0.1126,-0.3061 -0.0256,-0.1161 -0.0385,-0.2403 -0.0385,-0.3732 0,-0.0992 0.0076,-0.1961 0.0227,-0.2899 0.0146,-0.0933 0.038,-0.1808 0.0683,-0.2619 0.0309,-0.0816 0.07,-0.1528 0.1167,-0.214 0.0472,-0.0613 0.1026,-0.1097 0.1662,-0.1441 0.0641,-0.0344 0.1364,-0.0519 0.2175,-0.0525zm2.9394 -0.2974c-0.042,-0.0216 -0.0915,-0.0414 -0.1487,-0.0601 -0.0572,-0.0181 -0.1219,-0.0333 -0.1936,-0.045 -0.0712,-0.011 -0.1499,-0.0169 -0.2351,-0.0174 -0.1452,0.0005 -0.2752,0.0204 -0.3901,0.06 -0.1144,0.0391 -0.2111,0.094 -0.2911,0.1645 -0.0798,0.0706 -0.1411,0.1534 -0.1831,0.2479 -0.0414,0.0945 -0.0624,0.1971 -0.0629,0.3079 0.0005,0.1167 0.0273,0.2222 0.0804,0.3178 0.0531,0.0957 0.1283,0.1815 0.2263,0.2579 0.098,0.0758 0.2152,0.1428 0.3511,0.2011 0.0992,0.0426 0.1796,0.0852 0.2432,0.1284 0.063,0.0426 0.1091,0.0892 0.1394,0.1388 0.0297,0.0502 0.0449,0.1068 0.0443,0.1703 0,0.067 -0.0163,0.1253 -0.0496,0.1756 -0.0332,0.0501 -0.0822,0.0898 -0.1469,0.1178 -0.0648,0.028 -0.1452,0.042 -0.2409,0.0426 -0.0729,0 -0.1446,-0.0071 -0.2158,-0.0205 -0.0711,-0.0134 -0.1383,-0.0309 -0.2006,-0.0536 -0.0624,-0.0228 -0.1173,-0.0479 -0.1645,-0.0765l-0.1015 0.434c0.0432,0.0262 0.0992,0.0507 0.1686,0.0735 0.0694,0.0221 0.1464,0.0408 0.2309,0.0547 0.0852,0.0146 0.1721,0.0217 0.2619,0.0223 0.1569,-0.0006 0.2957,-0.0211 0.4176,-0.0607 0.1213,-0.0403 0.2239,-0.0968 0.3074,-0.1698 0.0833,-0.0723 0.1469,-0.1579 0.1901,-0.2565 0.0432,-0.0986 0.0647,-0.2071 0.0647,-0.3249 0.0006,-0.1178 -0.0215,-0.2245 -0.0659,-0.3202 -0.0443,-0.0962 -0.112,-0.1831 -0.2041,-0.2613 -0.0921,-0.0781 -0.2094,-0.1492 -0.3529,-0.2129 -0.0822,-0.0373 -0.1522,-0.0716 -0.2111,-0.1038 -0.0583,-0.0321 -0.1061,-0.0635 -0.1429,-0.0956 -0.0373,-0.0321 -0.0647,-0.0665 -0.0822,-0.1038 -0.017,-0.0374 -0.0257,-0.0793 -0.0257,-0.1272 0,-0.0513 0.014,-0.0991 0.042,-0.144 0.028,-0.0449 0.0711,-0.0817 0.1294,-0.1097 0.0584,-0.0286 0.133,-0.0432 0.224,-0.0437 0.0735,0.0005 0.1406,0.007 0.2012,0.0187 0.0607,0.0122 0.1144,0.0273 0.161,0.0449 0.0467,0.0175 0.0858,0.035 0.1173,0.0519l0.1084 -0.4234zm2.1242 -0.084l-1.8442 0 0 0.4479 0.6614 0 0 2.2431 0.5179 0 0 -2.2431 0.6649 0 0 -0.4479zm1.4522 0l-0.6509 0 -0.7629 2.691 0.525 0 0.1854 -0.7104 0.7209 0 0.1925 0.7104 0.5423 0 -0.7523 -2.691zm-0.6299 1.5887l0.161 -0.6159c0.0128,-0.0531 0.0262,-0.1114 0.0402,-0.1744 0.014,-0.063 0.0274,-0.1266 0.0408,-0.1901 0.0134,-0.0641 0.0263,-0.1248 0.038,-0.1814l0.0105 0c0.0116,0.0554 0.0244,0.1149 0.0378,0.1779 0.0135,0.0635 0.0275,0.1271 0.042,0.1907 0.0146,0.0642 0.0286,0.1242 0.0426,0.1808l0.161 0.6124 -0.5739 0zm3.1529 -1.5047c-0.042,-0.0216 -0.0915,-0.0414 -0.1487,-0.0601 -0.0572,-0.0181 -0.1219,-0.0333 -0.1936,-0.045 -0.0712,-0.011 -0.1499,-0.0169 -0.2351,-0.0174 -0.1452,0.0005 -0.2753,0.0204 -0.3901,0.06 -0.1144,0.0391 -0.2112,0.094 -0.2911,0.1645 -0.0799,0.0706 -0.1412,0.1534 -0.1831,0.2479 -0.0414,0.0945 -0.0625,0.1971 -0.063,0.3079 0.0005,0.1167 0.0274,0.2222 0.0805,0.3178 0.053,0.0957 0.1282,0.1815 0.2263,0.2579 0.098,0.0758 0.2152,0.1428 0.3511,0.2011 0.0991,0.0426 0.1796,0.0852 0.2432,0.1284 0.0629,0.0426 0.109,0.0892 0.1394,0.1388 0.0297,0.0502 0.0449,0.1068 0.0443,0.1703 0,0.067 -0.0164,0.1253 -0.0496,0.1756 -0.0332,0.0501 -0.0822,0.0898 -0.147,0.1178 -0.0647,0.028 -0.1452,0.042 -0.2408,0.0426 -0.0729,0 -0.1447,-0.0071 -0.2159,-0.0205 -0.071,-0.0134 -0.1382,-0.0309 -0.2005,-0.0536 -0.0624,-0.0228 -0.1173,-0.0479 -0.1645,-0.0765l-0.1015 0.434c0.0432,0.0262 0.0992,0.0507 0.1685,0.0735 0.0695,0.0221 0.1464,0.0408 0.231,0.0547 0.0852,0.0146 0.1721,0.0217 0.2619,0.0223 0.1568,-0.0006 0.2957,-0.0211 0.4176,-0.0607 0.1213,-0.0403 0.2239,-0.0968 0.3073,-0.1698 0.0834,-0.0723 0.1469,-0.1579 0.1901,-0.2565 0.0432,-0.0986 0.0648,-0.2071 0.0648,-0.3249 0.0006,-0.1178 -0.0216,-0.2245 -0.066,-0.3202 -0.0443,-0.0962 -0.1119,-0.1831 -0.2041,-0.2613 -0.0921,-0.0781 -0.2094,-0.1492 -0.3528,-0.2129 -0.0822,-0.0373 -0.1523,-0.0716 -0.2112,-0.1038 -0.0583,-0.0321 -0.1061,-0.0635 -0.1428,-0.0956 -0.0374,-0.0321 -0.0648,-0.0665 -0.0823,-0.1038 -0.0169,-0.0374 -0.0256,-0.0793 -0.0256,-0.1272 0,-0.0513 0.0139,-0.0991 0.0419,-0.144 0.0281,-0.0449 0.0712,-0.0817 0.1295,-0.1097 0.0584,-0.0286 0.133,-0.0432 0.224,-0.0437 0.0735,0.0005 0.1406,0.007 0.2012,0.0187 0.0607,0.0122 0.1143,0.0273 0.161,0.0449 0.0467,0.0175 0.0857,0.035 0.1172,0.0519l0.1085 -0.4234z"/>
   <path id="_405491352" class="fil4" d="M16.9985 6.2775l-1.1582 0 0 -0.007 0.2065 -0.217c0.1358,-0.1359 0.2583,-0.2654 0.368,-0.389 0.109,-0.123 0.2023,-0.2432 0.2799,-0.3604 0.0776,-0.1166 0.1371,-0.2339 0.1785,-0.3505 0.0413,-0.1167 0.0618,-0.2368 0.0624,-0.3593 0,-0.0729 -0.0088,-0.1446 -0.0263,-0.2158 -0.0175,-0.0717 -0.0443,-0.1388 -0.0816,-0.2024 -0.0368,-0.0635 -0.084,-0.1196 -0.1423,-0.1685 -0.0578,-0.049 -0.1278,-0.0875 -0.2082,-0.1161 -0.0811,-0.028 -0.1744,-0.042 -0.28,-0.0426 -0.0933,0.0006 -0.1813,0.0117 -0.2648,0.0345 -0.0828,0.0221 -0.1592,0.0524 -0.2286,0.091 -0.07,0.0384 -0.1312,0.0816 -0.1855,0.13l0.098 0.2029c0.0426,-0.0349 0.091,-0.0681 0.1453,-0.1014 0.0547,-0.0327 0.1142,-0.0601 0.1784,-0.0817 0.0642,-0.0222 0.1312,-0.0332 0.2012,-0.0338 0.0945,0.0006 0.1732,0.0158 0.2379,0.0449 0.0643,0.0292 0.1155,0.0688 0.1541,0.1196 0.0384,0.0501 0.0664,0.1079 0.0833,0.172 0.0169,0.0642 0.0257,0.1318 0.0251,0.2024 0,0.1061 -0.0198,0.2111 -0.0589,0.3161 -0.0391,0.105 -0.098,0.2141 -0.1761,0.3266 -0.0787,0.1131 -0.1762,0.235 -0.2934,0.3651 -0.1172,0.1301 -0.2537,0.2736 -0.4094,0.4304l-0.2555 0.2694 0 0.1785 1.5502 0 0 -0.2379zm1.1548 0.2799c0.1744,0 0.3243,-0.0518 0.4497,-0.1557 0.1248,-0.1032 0.221,-0.2572 0.2881,-0.4619 0.0676,-0.2047 0.1015,-0.459 0.1021,-0.7629 -0.0006,-0.2869 -0.0333,-0.529 -0.0975,-0.7261 -0.0641,-0.1971 -0.1556,-0.3464 -0.2752,-0.4484 -0.1195,-0.1021 -0.2625,-0.1529 -0.4287,-0.1535 -0.1231,0 -0.2362,0.028 -0.3388,0.084 -0.1032,0.056 -0.1925,0.14 -0.2683,0.2531 -0.0758,0.1132 -0.1347,0.2549 -0.1761,0.4258 -0.042,0.1703 -0.063,0.3704 -0.0636,0.6001 0.0006,0.2193 0.0204,0.4124 0.0595,0.5798 0.039,0.1674 0.0945,0.3079 0.1662,0.4216 0.0718,0.1138 0.1568,0.1995 0.2554,0.2572 0.0986,0.0577 0.2077,0.0869 0.3272,0.0869zm0.0105 -0.2379c-0.0822,-0.0006 -0.1557,-0.0269 -0.2204,-0.0793 -0.0641,-0.0526 -0.119,-0.1278 -0.1639,-0.2263 -0.0443,-0.098 -0.0787,-0.217 -0.1021,-0.3552 -0.0234,-0.1388 -0.0349,-0.2945 -0.0349,-0.4678 0.0005,-0.2309 0.0238,-0.4292 0.0687,-0.5942 0.0449,-0.1651 0.1073,-0.2917 0.1867,-0.3798 0.0799,-0.088 0.172,-0.1329 0.2764,-0.1335 0.0916,0.0006 0.1709,0.0274 0.2374,0.0811 0.0659,0.053 0.1202,0.1288 0.1627,0.2269 0.0425,0.098 0.0741,0.2146 0.0945,0.3499 0.0204,0.1353 0.0303,0.2852 0.0303,0.4496 0,0.1254 -0.0058,0.2444 -0.018,0.357 -0.0129,0.1126 -0.0321,0.2158 -0.0584,0.3097 -0.0262,0.0938 -0.0606,0.1755 -0.1026,0.2443 -0.042,0.0688 -0.0927,0.1225 -0.1516,0.1598 -0.0589,0.038 -0.1272,0.0572 -0.2048,0.0578zm2.1626 0.1959l0 -2.621 -0.2485 0 -0.5424 0.3045 0.07 0.217 0.4304 -0.2485 0.0071 0 0 2.348 0.2834 0zm0.9553 -2.3795l1.2388 0 0 0.007 -1.0953 2.3725 0.2974 0 1.0953 -2.4355 0 -0.1855 -1.5362 0 0 0.2415z"/>
  </g>
  <g id="_404082040">
   <path id="_405491208" class="fil0" d="M10.1128 18.1553c0,0 -5.7915,-2.0808 -9.0037,2.5876 -3.2121,4.6684 3.3787,13.656 11.2904,11.5448 0.706,-0.2202 3.2908,-0.9641 4.2362,-4.1356 -3.4878,4.65 -12.2111,1.1488 -13.1807,-4.1908 -0.4288,-2.3612 -0.3766,-6.3626 6.6578,-5.806z"/>
   <path id="_405491328" class="fil1" d="M9.803 21.5692l-1.7506 -2.4853 -3.5195 1.0877c0,0 -0.7866,0.8055 -0.6013,3.0783l5.8714 -1.6807z"/>
   <path id="_404631224" class="fil2" d="M4.0628 23.9638l8.5867 -2.5782 1.8457 2.5083 -8.9007 2.9944c0,0 -1.2725,-1.3773 -1.5317,-2.9245z"/>
   <path id="_404082064" class="fil3" d="M6.2822 27.4982l9.4873 -3.0494 -0.3968 -0.7414 4.6676 0.6847 -2.0347 3.2927 -0.5178 -0.8198 -7.7072 2.5128c0,0 -2.1245,-0.6339 -3.4984,-1.8796z"/>
   <path id="_404082424" class="fil4" d="M17.1841 19.3788c-0.0357,0.0151 -0.0771,0.0285 -0.1243,0.0402 -0.0473,0.0116 -0.098,0.0204 -0.1516,0.0268 -0.0537,0.0064 -0.1073,0.0099 -0.1616,0.0099 -0.1627,0 -0.3038,-0.0361 -0.4228,-0.1067 -0.119,-0.0712 -0.2112,-0.1761 -0.2765,-0.3149 -0.0647,-0.1383 -0.098,-0.3097 -0.0986,-0.5127 0.0006,-0.1627 0.0217,-0.3038 0.063,-0.424 0.0408,-0.1202 0.098,-0.2192 0.1709,-0.298 0.0735,-0.0782 0.1581,-0.1371 0.2549,-0.1756 0.0968,-0.0384 0.2006,-0.0577 0.3126,-0.0577 0.0928,0.0006 0.1744,0.0093 0.2455,0.0268 0.0712,0.0169 0.1324,0.0368 0.1849,0.0607l0.1015 -0.42c-0.0256,-0.0145 -0.0636,-0.0297 -0.1137,-0.0449 -0.0502,-0.0157 -0.1126,-0.0285 -0.1867,-0.0396 -0.0734,-0.0111 -0.1592,-0.0164 -0.256,-0.0169 -0.1435,0 -0.2805,0.0193 -0.4112,0.0571 -0.1312,0.038 -0.2513,0.0945 -0.3615,0.1704 -0.1103,0.0758 -0.2059,0.1708 -0.2876,0.284 -0.0816,0.1137 -0.1452,0.246 -0.1901,0.3966 -0.0455,0.151 -0.0682,0.3207 -0.0688,0.5091 0,0.2 0.028,0.3826 0.0828,0.5471 0.0548,0.1644 0.1353,0.3062 0.2421,0.4258 0.1067,0.1195 0.2379,0.2111 0.3942,0.2758 0.1557,0.0648 0.3348,0.098 0.5371,0.0986 0.0928,-0.0006 0.1773,-0.0053 0.2543,-0.0158 0.0776,-0.0099 0.1446,-0.0222 0.2029,-0.0379 0.0578,-0.0152 0.1033,-0.0309 0.1377,-0.0478l-0.0734 -0.4164zm1.4661 -2.2501c-0.1412,0.0006 -0.2707,0.0233 -0.3896,0.0677 -0.1184,0.0449 -0.2246,0.109 -0.3184,0.1918 -0.0933,0.0834 -0.1727,0.182 -0.2385,0.2975 -0.0654,0.1154 -0.115,0.2437 -0.1493,0.3849 -0.0345,0.1411 -0.052,0.2927 -0.052,0.4543 0,0.1563 0.0157,0.3045 0.0478,0.4427 0.0316,0.1382 0.0776,0.2648 0.1395,0.3785 0.0612,0.1137 0.137,0.2123 0.2268,0.2946 0.0898,0.0827 0.1936,0.1463 0.3103,0.1912 0.1166,0.045 0.2461,0.0677 0.3884,0.0682 0.168,0 0.3214,-0.0297 0.4607,-0.0898 0.1395,-0.0595 0.2602,-0.1487 0.3622,-0.2671 0.1021,-0.1184 0.1808,-0.2665 0.2368,-0.4432 0.0555,-0.1768 0.084,-0.3827 0.0846,-0.6171 0,-0.144 -0.0146,-0.2829 -0.0437,-0.4164 -0.0292,-0.1336 -0.0735,-0.2566 -0.1318,-0.3704 -0.0589,-0.1131 -0.1324,-0.2128 -0.2211,-0.2974 -0.0886,-0.0845 -0.1924,-0.151 -0.3108,-0.1983 -0.119,-0.0472 -0.2526,-0.0711 -0.4019,-0.0717zm-0.014 0.4234c0.0793,0.0006 0.1499,0.0175 0.2123,0.0513 0.0624,0.0338 0.1166,0.0811 0.1633,0.1418 0.046,0.06 0.0846,0.1306 0.1149,0.2105 0.0303,0.0799 0.053,0.1668 0.0682,0.2595 0.0146,0.0934 0.0222,0.1896 0.0222,0.2887 0,0.1365 -0.0123,0.2637 -0.0374,0.3809 -0.0244,0.1172 -0.0612,0.2204 -0.1102,0.309 -0.0489,0.0887 -0.1102,0.1575 -0.1831,0.2071 -0.0729,0.0496 -0.1575,0.0752 -0.2537,0.0759 -0.0957,-0.0007 -0.1797,-0.0263 -0.2526,-0.0759 -0.0734,-0.0502 -0.1347,-0.119 -0.1842,-0.2071 -0.0501,-0.088 -0.0875,-0.19 -0.1126,-0.3061 -0.0256,-0.1161 -0.0385,-0.2403 -0.0385,-0.3732 0,-0.0992 0.0076,-0.1961 0.0227,-0.2899 0.0146,-0.0933 0.038,-0.1808 0.0683,-0.2619 0.0309,-0.0816 0.07,-0.1528 0.1167,-0.214 0.0472,-0.0613 0.1026,-0.1097 0.1662,-0.1441 0.0641,-0.0344 0.1364,-0.0519 0.2175,-0.0525zm2.9394 -0.2974c-0.042,-0.0216 -0.0915,-0.0414 -0.1487,-0.0601 -0.0572,-0.0181 -0.1219,-0.0333 -0.1936,-0.045 -0.0712,-0.011 -0.1499,-0.0169 -0.2351,-0.0174 -0.1452,0.0005 -0.2752,0.0204 -0.3901,0.06 -0.1144,0.0391 -0.2111,0.094 -0.2911,0.1645 -0.0798,0.0706 -0.1411,0.1534 -0.1831,0.2479 -0.0414,0.0945 -0.0624,0.1971 -0.0629,0.3079 0.0005,0.1167 0.0273,0.2222 0.0804,0.3178 0.0531,0.0957 0.1283,0.1815 0.2263,0.2579 0.098,0.0758 0.2152,0.1428 0.3511,0.2011 0.0992,0.0426 0.1796,0.0852 0.2432,0.1284 0.063,0.0426 0.1091,0.0892 0.1394,0.1388 0.0297,0.0502 0.0449,0.1068 0.0443,0.1703 0,0.067 -0.0163,0.1253 -0.0496,0.1756 -0.0332,0.0501 -0.0822,0.0898 -0.1469,0.1178 -0.0648,0.028 -0.1452,0.042 -0.2409,0.0426 -0.0729,0 -0.1446,-0.0071 -0.2158,-0.0205 -0.0711,-0.0134 -0.1383,-0.0309 -0.2006,-0.0536 -0.0624,-0.0228 -0.1173,-0.0479 -0.1645,-0.0765l-0.1015 0.434c0.0432,0.0262 0.0992,0.0507 0.1686,0.0735 0.0694,0.0221 0.1464,0.0408 0.2309,0.0547 0.0852,0.0146 0.1721,0.0217 0.2619,0.0223 0.1569,-0.0006 0.2957,-0.0211 0.4176,-0.0607 0.1213,-0.0403 0.2239,-0.0968 0.3074,-0.1698 0.0833,-0.0723 0.1469,-0.1579 0.1901,-0.2565 0.0432,-0.0986 0.0647,-0.2071 0.0647,-0.3249 0.0006,-0.1178 -0.0215,-0.2245 -0.0659,-0.3202 -0.0443,-0.0962 -0.112,-0.1831 -0.2041,-0.2613 -0.0921,-0.0781 -0.2094,-0.1492 -0.3529,-0.2129 -0.0822,-0.0373 -0.1522,-0.0716 -0.2111,-0.1038 -0.0583,-0.0321 -0.1061,-0.0635 -0.1429,-0.0956 -0.0373,-0.0321 -0.0647,-0.0665 -0.0822,-0.1038 -0.017,-0.0374 -0.0257,-0.0793 -0.0257,-0.1272 0,-0.0513 0.014,-0.0991 0.042,-0.144 0.028,-0.0449 0.0711,-0.0817 0.1294,-0.1097 0.0584,-0.0286 0.133,-0.0432 0.224,-0.0437 0.0735,0.0005 0.1406,0.007 0.2012,0.0187 0.0607,0.0122 0.1144,0.0273 0.161,0.0449 0.0467,0.0175 0.0858,0.035 0.1173,0.0519l0.1084 -0.4234zm2.1242 -0.084l-1.8442 0 0 0.4479 0.6614 0 0 2.2431 0.5179 0 0 -2.2431 0.6649 0 0 -0.4479zm1.4522 0l-0.6509 0 -0.7629 2.691 0.525 0 0.1854 -0.7104 0.7209 0 0.1925 0.7104 0.5423 0 -0.7523 -2.691zm-0.6299 1.5887l0.161 -0.6159c0.0128,-0.0531 0.0262,-0.1114 0.0402,-0.1744 0.014,-0.063 0.0274,-0.1266 0.0408,-0.1901 0.0134,-0.0641 0.0263,-0.1248 0.038,-0.1814l0.0105 0c0.0116,0.0554 0.0244,0.1149 0.0378,0.1779 0.0135,0.0635 0.0275,0.1271 0.042,0.1907 0.0146,0.0642 0.0286,0.1242 0.0426,0.1808l0.161 0.6124 -0.5739 0zm3.1529 -1.5047c-0.042,-0.0216 -0.0915,-0.0414 -0.1487,-0.0601 -0.0572,-0.0181 -0.1219,-0.0333 -0.1936,-0.045 -0.0712,-0.011 -0.1499,-0.0169 -0.2351,-0.0174 -0.1452,0.0005 -0.2753,0.0204 -0.3901,0.06 -0.1144,0.0391 -0.2112,0.094 -0.2911,0.1645 -0.0799,0.0706 -0.1412,0.1534 -0.1831,0.2479 -0.0414,0.0945 -0.0625,0.1971 -0.063,0.3079 0.0005,0.1167 0.0274,0.2222 0.0805,0.3178 0.053,0.0957 0.1282,0.1815 0.2263,0.2579 0.098,0.0758 0.2152,0.1428 0.3511,0.2011 0.0991,0.0426 0.1796,0.0852 0.2432,0.1284 0.0629,0.0426 0.109,0.0892 0.1394,0.1388 0.0297,0.0502 0.0449,0.1068 0.0443,0.1703 0,0.067 -0.0164,0.1253 -0.0496,0.1756 -0.0332,0.0501 -0.0822,0.0898 -0.147,0.1178 -0.0647,0.028 -0.1452,0.042 -0.2408,0.0426 -0.0729,0 -0.1447,-0.0071 -0.2159,-0.0205 -0.071,-0.0134 -0.1382,-0.0309 -0.2005,-0.0536 -0.0624,-0.0228 -0.1173,-0.0479 -0.1645,-0.0765l-0.1015 0.434c0.0432,0.0262 0.0992,0.0507 0.1685,0.0735 0.0695,0.0221 0.1464,0.0408 0.231,0.0547 0.0852,0.0146 0.1721,0.0217 0.2619,0.0223 0.1568,-0.0006 0.2957,-0.0211 0.4176,-0.0607 0.1213,-0.0403 0.2239,-0.0968 0.3073,-0.1698 0.0834,-0.0723 0.1469,-0.1579 0.1901,-0.2565 0.0432,-0.0986 0.0648,-0.2071 0.0648,-0.3249 0.0006,-0.1178 -0.0216,-0.2245 -0.066,-0.3202 -0.0443,-0.0962 -0.1119,-0.1831 -0.2041,-0.2613 -0.0921,-0.0781 -0.2094,-0.1492 -0.3528,-0.2129 -0.0822,-0.0373 -0.1523,-0.0716 -0.2112,-0.1038 -0.0583,-0.0321 -0.1061,-0.0635 -0.1428,-0.0956 -0.0374,-0.0321 -0.0648,-0.0665 -0.0823,-0.1038 -0.0169,-0.0374 -0.0256,-0.0793 -0.0256,-0.1272 0,-0.0513 0.0139,-0.0991 0.0419,-0.144 0.0281,-0.0449 0.0712,-0.0817 0.1295,-0.1097 0.0584,-0.0286 0.133,-0.0432 0.224,-0.0437 0.0735,0.0005 0.1406,0.007 0.2012,0.0187 0.0607,0.0122 0.1143,0.0273 0.161,0.0449 0.0467,0.0175 0.0857,0.035 0.1172,0.0519l0.1085 -0.4234z"/>
   <path id="_404081752" class="fil4" d="M16.9985 22.997l-1.1582 0 0 -0.007 0.2065 -0.217c0.1358,-0.1359 0.2583,-0.2654 0.368,-0.389 0.109,-0.123 0.2023,-0.2432 0.2799,-0.3604 0.0776,-0.1166 0.1371,-0.2339 0.1785,-0.3505 0.0413,-0.1167 0.0618,-0.2368 0.0624,-0.3593 0,-0.0729 -0.0088,-0.1446 -0.0263,-0.2158 -0.0175,-0.0717 -0.0443,-0.1388 -0.0816,-0.2024 -0.0368,-0.0635 -0.084,-0.1196 -0.1423,-0.1685 -0.0578,-0.049 -0.1278,-0.0875 -0.2082,-0.1161 -0.0811,-0.028 -0.1744,-0.042 -0.28,-0.0426 -0.0933,0.0006 -0.1813,0.0117 -0.2648,0.0345 -0.0828,0.0221 -0.1592,0.0524 -0.2286,0.091 -0.07,0.0384 -0.1312,0.0816 -0.1855,0.13l0.098 0.2029c0.0426,-0.0349 0.091,-0.0681 0.1453,-0.1014 0.0547,-0.0327 0.1142,-0.0601 0.1784,-0.0817 0.0642,-0.0222 0.1312,-0.0332 0.2012,-0.0338 0.0945,0.0006 0.1732,0.0158 0.2379,0.0449 0.0643,0.0292 0.1155,0.0688 0.1541,0.1196 0.0384,0.0501 0.0664,0.1079 0.0833,0.172 0.0169,0.0642 0.0257,0.1318 0.0251,0.2024 0,0.1061 -0.0198,0.2111 -0.0589,0.3161 -0.0391,0.105 -0.098,0.2141 -0.1761,0.3266 -0.0787,0.1131 -0.1762,0.235 -0.2934,0.3651 -0.1172,0.1301 -0.2537,0.2736 -0.4094,0.4304l-0.2555 0.2694 0 0.1785 1.5502 0 0 -0.2379zm1.1548 0.2799c0.1744,0 0.3243,-0.0518 0.4497,-0.1557 0.1248,-0.1032 0.221,-0.2572 0.2881,-0.4619 0.0676,-0.2047 0.1015,-0.459 0.1021,-0.7629 -0.0006,-0.2869 -0.0333,-0.529 -0.0975,-0.7261 -0.0641,-0.1971 -0.1556,-0.3464 -0.2752,-0.4484 -0.1195,-0.1021 -0.2625,-0.1529 -0.4287,-0.1535 -0.1231,0 -0.2362,0.028 -0.3388,0.084 -0.1032,0.056 -0.1925,0.14 -0.2683,0.2531 -0.0758,0.1132 -0.1347,0.2549 -0.1761,0.4258 -0.042,0.1703 -0.063,0.3704 -0.0636,0.6001 0.0006,0.2193 0.0204,0.4124 0.0595,0.5798 0.039,0.1674 0.0945,0.3079 0.1662,0.4216 0.0718,0.1138 0.1568,0.1995 0.2554,0.2572 0.0986,0.0577 0.2077,0.0869 0.3272,0.0869zm0.0105 -0.2379c-0.0822,-0.0006 -0.1557,-0.0269 -0.2204,-0.0793 -0.0641,-0.0526 -0.119,-0.1278 -0.1639,-0.2263 -0.0443,-0.098 -0.0787,-0.217 -0.1021,-0.3552 -0.0234,-0.1388 -0.0349,-0.2945 -0.0349,-0.4678 0.0005,-0.2309 0.0238,-0.4292 0.0687,-0.5942 0.0449,-0.1651 0.1073,-0.2917 0.1867,-0.3798 0.0799,-0.088 0.172,-0.1329 0.2764,-0.1335 0.0916,0.0006 0.1709,0.0274 0.2374,0.0811 0.0659,0.053 0.1202,0.1288 0.1627,0.2269 0.0425,0.098 0.0741,0.2146 0.0945,0.3499 0.0204,0.1353 0.0303,0.2852 0.0303,0.4496 0,0.1254 -0.0058,0.2444 -0.018,0.357 -0.0129,0.1126 -0.0321,0.2158 -0.0584,0.3097 -0.0262,0.0938 -0.0606,0.1755 -0.1026,0.2443 -0.042,0.0688 -0.0927,0.1225 -0.1516,0.1598 -0.0589,0.038 -0.1272,0.0572 -0.2048,0.0578zm2.1626 0.1959l0 -2.621 -0.2485 0 -0.5424 0.3045 0.07 0.217 0.4304 -0.2485 0.0071 0 0 2.348 0.2834 0zm0.9553 -2.3795l1.2388 0 0 0.007 -1.0953 2.3725 0.2974 0 1.0953 -2.4355 0 -0.1855 -1.5362 0 0 0.2415z"/>
  </g>
  <g id="_404631032">
   <path id="_404081944" class="fil0" d="M10.1128 34.7803c0,0 -5.7915,-2.0808 -9.0037,2.5876 -3.2121,4.6684 3.3787,13.656 11.2904,11.5448 0.706,-0.2202 3.2908,-0.9641 4.2362,-4.1356 -3.4878,4.65 -12.2111,1.1488 -13.1807,-4.1908 -0.4288,-2.3612 -0.3766,-6.3626 6.6578,-5.806z"/>
   <path id="_404082520" class="fil1" d="M9.803 38.1942l-1.7506 -2.4853 -3.5195 1.0877c0,0 -0.7866,0.8055 -0.6013,3.0783l5.8714 -1.6807z"/>
   <path id="_404631344" class="fil2" d="M4.0628 40.5888l8.5867 -2.5782 1.8457 2.5083 -8.9007 2.9944c0,0 -1.2725,-1.3773 -1.5317,-2.9245z"/>
   <path id="_404630888" class="fil3" d="M6.2822 44.1232l9.4873 -3.0494 -0.3968 -0.7414 4.6676 0.6847 -2.0347 3.2927 -0.5178 -0.8198 -7.7072 2.5128c0,0 -2.1245,-0.6339 -3.4984,-1.8796z"/>
   <path id="_404630840" class="fil5" d="M17.1841 36.0038c-0.0357,0.0151 -0.0771,0.0285 -0.1243,0.0402 -0.0473,0.0116 -0.098,0.0204 -0.1516,0.0268 -0.0537,0.0064 -0.1073,0.0099 -0.1616,0.0099 -0.1627,0 -0.3038,-0.0361 -0.4228,-0.1067 -0.119,-0.0712 -0.2112,-0.1761 -0.2765,-0.3149 -0.0647,-0.1383 -0.098,-0.3097 -0.0986,-0.5127 0.0006,-0.1627 0.0217,-0.3038 0.063,-0.424 0.0408,-0.1202 0.098,-0.2192 0.1709,-0.298 0.0735,-0.0782 0.1581,-0.1371 0.2549,-0.1756 0.0968,-0.0384 0.2006,-0.0577 0.3126,-0.0577 0.0928,0.0006 0.1744,0.0093 0.2455,0.0268 0.0712,0.0169 0.1324,0.0368 0.1849,0.0607l0.1015 -0.42c-0.0256,-0.0145 -0.0636,-0.0297 -0.1137,-0.0449 -0.0502,-0.0157 -0.1126,-0.0285 -0.1867,-0.0396 -0.0734,-0.0111 -0.1592,-0.0164 -0.256,-0.0169 -0.1435,0 -0.2805,0.0193 -0.4112,0.0571 -0.1312,0.038 -0.2513,0.0945 -0.3615,0.1704 -0.1103,0.0758 -0.2059,0.1708 -0.2876,0.284 -0.0816,0.1137 -0.1452,0.246 -0.1901,0.3966 -0.0455,0.151 -0.0682,0.3207 -0.0688,0.5091 0,0.2 0.028,0.3826 0.0828,0.5471 0.0548,0.1644 0.1353,0.3062 0.2421,0.4258 0.1067,0.1195 0.2379,0.2111 0.3942,0.2758 0.1557,0.0648 0.3348,0.098 0.5371,0.0986 0.0928,-0.0006 0.1773,-0.0053 0.2543,-0.0158 0.0776,-0.0099 0.1446,-0.0222 0.2029,-0.0379 0.0578,-0.0152 0.1033,-0.0309 0.1377,-0.0478l-0.0734 -0.4164zm1.4661 -2.2501c-0.1412,0.0006 -0.2707,0.0233 -0.3896,0.0677 -0.1184,0.0449 -0.2246,0.109 -0.3184,0.1918 -0.0933,0.0834 -0.1727,0.182 -0.2385,0.2975 -0.0654,0.1154 -0.115,0.2437 -0.1493,0.3849 -0.0345,0.1411 -0.052,0.2927 -0.052,0.4543 0,0.1563 0.0157,0.3045 0.0478,0.4427 0.0316,0.1382 0.0776,0.2648 0.1395,0.3785 0.0612,0.1137 0.137,0.2123 0.2268,0.2946 0.0898,0.0827 0.1936,0.1463 0.3103,0.1912 0.1166,0.045 0.2461,0.0677 0.3884,0.0682 0.168,0 0.3214,-0.0297 0.4607,-0.0898 0.1395,-0.0595 0.2602,-0.1487 0.3622,-0.2671 0.1021,-0.1184 0.1808,-0.2665 0.2368,-0.4432 0.0555,-0.1768 0.084,-0.3827 0.0846,-0.6171 0,-0.144 -0.0146,-0.2829 -0.0437,-0.4164 -0.0292,-0.1336 -0.0735,-0.2566 -0.1318,-0.3704 -0.0589,-0.1131 -0.1324,-0.2128 -0.2211,-0.2974 -0.0886,-0.0845 -0.1924,-0.151 -0.3108,-0.1983 -0.119,-0.0472 -0.2526,-0.0711 -0.4019,-0.0717zm-0.014 0.4234c0.0793,0.0006 0.1499,0.0175 0.2123,0.0513 0.0624,0.0338 0.1166,0.0811 0.1633,0.1418 0.046,0.06 0.0846,0.1306 0.1149,0.2105 0.0303,0.0799 0.053,0.1668 0.0682,0.2595 0.0146,0.0934 0.0222,0.1896 0.0222,0.2887 0,0.1365 -0.0123,0.2637 -0.0374,0.3809 -0.0244,0.1172 -0.0612,0.2204 -0.1102,0.309 -0.0489,0.0887 -0.1102,0.1575 -0.1831,0.2071 -0.0729,0.0496 -0.1575,0.0752 -0.2537,0.0759 -0.0957,-0.0007 -0.1797,-0.0263 -0.2526,-0.0759 -0.0734,-0.0502 -0.1347,-0.119 -0.1842,-0.2071 -0.0501,-0.088 -0.0875,-0.19 -0.1126,-0.3061 -0.0256,-0.1161 -0.0385,-0.2403 -0.0385,-0.3732 0,-0.0992 0.0076,-0.1961 0.0227,-0.2899 0.0146,-0.0933 0.038,-0.1808 0.0683,-0.2619 0.0309,-0.0816 0.07,-0.1528 0.1167,-0.214 0.0472,-0.0613 0.1026,-0.1097 0.1662,-0.1441 0.0641,-0.0344 0.1364,-0.0519 0.2175,-0.0525zm2.9394 -0.2974c-0.042,-0.0216 -0.0915,-0.0414 -0.1487,-0.0601 -0.0572,-0.0181 -0.1219,-0.0333 -0.1936,-0.045 -0.0712,-0.011 -0.1499,-0.0169 -0.2351,-0.0174 -0.1452,0.0005 -0.2752,0.0204 -0.3901,0.06 -0.1144,0.0391 -0.2111,0.094 -0.2911,0.1645 -0.0798,0.0706 -0.1411,0.1534 -0.1831,0.2479 -0.0414,0.0945 -0.0624,0.1971 -0.0629,0.3079 0.0005,0.1167 0.0273,0.2222 0.0804,0.3178 0.0531,0.0957 0.1283,0.1815 0.2263,0.2579 0.098,0.0758 0.2152,0.1428 0.3511,0.2011 0.0992,0.0426 0.1796,0.0852 0.2432,0.1284 0.063,0.0426 0.1091,0.0892 0.1394,0.1388 0.0297,0.0502 0.0449,0.1068 0.0443,0.1703 0,0.067 -0.0163,0.1253 -0.0496,0.1756 -0.0332,0.0501 -0.0822,0.0898 -0.1469,0.1178 -0.0648,0.028 -0.1452,0.042 -0.2409,0.0426 -0.0729,0 -0.1446,-0.0071 -0.2158,-0.0205 -0.0711,-0.0134 -0.1383,-0.0309 -0.2006,-0.0536 -0.0624,-0.0228 -0.1173,-0.0479 -0.1645,-0.0765l-0.1015 0.434c0.0432,0.0262 0.0992,0.0507 0.1686,0.0735 0.0694,0.0221 0.1464,0.0408 0.2309,0.0547 0.0852,0.0146 0.1721,0.0217 0.2619,0.0223 0.1569,-0.0006 0.2957,-0.0211 0.4176,-0.0607 0.1213,-0.0403 0.2239,-0.0968 0.3074,-0.1698 0.0833,-0.0723 0.1469,-0.1579 0.1901,-0.2565 0.0432,-0.0986 0.0647,-0.2071 0.0647,-0.3249 0.0006,-0.1178 -0.0215,-0.2245 -0.0659,-0.3202 -0.0443,-0.0962 -0.112,-0.1831 -0.2041,-0.2613 -0.0921,-0.0781 -0.2094,-0.1492 -0.3529,-0.2129 -0.0822,-0.0373 -0.1522,-0.0716 -0.2111,-0.1038 -0.0583,-0.0321 -0.1061,-0.0635 -0.1429,-0.0956 -0.0373,-0.0321 -0.0647,-0.0665 -0.0822,-0.1038 -0.017,-0.0374 -0.0257,-0.0793 -0.0257,-0.1272 0,-0.0513 0.014,-0.0991 0.042,-0.144 0.028,-0.0449 0.0711,-0.0817 0.1294,-0.1097 0.0584,-0.0286 0.133,-0.0432 0.224,-0.0437 0.0735,0.0005 0.1406,0.007 0.2012,0.0187 0.0607,0.0122 0.1144,0.0273 0.161,0.0449 0.0467,0.0175 0.0858,0.035 0.1173,0.0519l0.1084 -0.4234zm2.1242 -0.084l-1.8442 0 0 0.4479 0.6614 0 0 2.2431 0.5179 0 0 -2.2431 0.6649 0 0 -0.4479zm1.4522 0l-0.6509 0 -0.7629 2.691 0.525 0 0.1854 -0.7104 0.7209 0 0.1925 0.7104 0.5423 0 -0.7523 -2.691zm-0.6299 1.5887l0.161 -0.6159c0.0128,-0.0531 0.0262,-0.1114 0.0402,-0.1744 0.014,-0.063 0.0274,-0.1266 0.0408,-0.1901 0.0134,-0.0641 0.0263,-0.1248 0.038,-0.1814l0.0105 0c0.0116,0.0554 0.0244,0.1149 0.0378,0.1779 0.0135,0.0635 0.0275,0.1271 0.042,0.1907 0.0146,0.0642 0.0286,0.1242 0.0426,0.1808l0.161 0.6124 -0.5739 0zm3.1529 -1.5047c-0.042,-0.0216 -0.0915,-0.0414 -0.1487,-0.0601 -0.0572,-0.0181 -0.1219,-0.0333 -0.1936,-0.045 -0.0712,-0.011 -0.1499,-0.0169 -0.2351,-0.0174 -0.1452,0.0005 -0.2753,0.0204 -0.3901,0.06 -0.1144,0.0391 -0.2112,0.094 -0.2911,0.1645 -0.0799,0.0706 -0.1412,0.1534 -0.1831,0.2479 -0.0414,0.0945 -0.0625,0.1971 -0.063,0.3079 0.0005,0.1167 0.0274,0.2222 0.0805,0.3178 0.053,0.0957 0.1282,0.1815 0.2263,0.2579 0.098,0.0758 0.2152,0.1428 0.3511,0.2011 0.0991,0.0426 0.1796,0.0852 0.2432,0.1284 0.0629,0.0426 0.109,0.0892 0.1394,0.1388 0.0297,0.0502 0.0449,0.1068 0.0443,0.1703 0,0.067 -0.0164,0.1253 -0.0496,0.1756 -0.0332,0.0501 -0.0822,0.0898 -0.147,0.1178 -0.0647,0.028 -0.1452,0.042 -0.2408,0.0426 -0.0729,0 -0.1447,-0.0071 -0.2159,-0.0205 -0.071,-0.0134 -0.1382,-0.0309 -0.2005,-0.0536 -0.0624,-0.0228 -0.1173,-0.0479 -0.1645,-0.0765l-0.1015 0.434c0.0432,0.0262 0.0992,0.0507 0.1685,0.0735 0.0695,0.0221 0.1464,0.0408 0.231,0.0547 0.0852,0.0146 0.1721,0.0217 0.2619,0.0223 0.1568,-0.0006 0.2957,-0.0211 0.4176,-0.0607 0.1213,-0.0403 0.2239,-0.0968 0.3073,-0.1698 0.0834,-0.0723 0.1469,-0.1579 0.1901,-0.2565 0.0432,-0.0986 0.0648,-0.2071 0.0648,-0.3249 0.0006,-0.1178 -0.0216,-0.2245 -0.066,-0.3202 -0.0443,-0.0962 -0.1119,-0.1831 -0.2041,-0.2613 -0.0921,-0.0781 -0.2094,-0.1492 -0.3528,-0.2129 -0.0822,-0.0373 -0.1523,-0.0716 -0.2112,-0.1038 -0.0583,-0.0321 -0.1061,-0.0635 -0.1428,-0.0956 -0.0374,-0.0321 -0.0648,-0.0665 -0.0823,-0.1038 -0.0169,-0.0374 -0.0256,-0.0793 -0.0256,-0.1272 0,-0.0513 0.0139,-0.0991 0.0419,-0.144 0.0281,-0.0449 0.0712,-0.0817 0.1295,-0.1097 0.0584,-0.0286 0.133,-0.0432 0.224,-0.0437 0.0735,0.0005 0.1406,0.007 0.2012,0.0187 0.0607,0.0122 0.1143,0.0273 0.161,0.0449 0.0467,0.0175 0.0857,0.035 0.1172,0.0519l0.1085 -0.4234z"/>
   <path id="_404630672" class="fil5" d="M16.9985 39.622l-1.1582 0 0 -0.007 0.2065 -0.217c0.1358,-0.1359 0.2583,-0.2654 0.368,-0.389 0.109,-0.123 0.2023,-0.2432 0.2799,-0.3604 0.0776,-0.1166 0.1371,-0.2339 0.1785,-0.3505 0.0413,-0.1167 0.0618,-0.2368 0.0624,-0.3593 0,-0.0729 -0.0088,-0.1446 -0.0263,-0.2158 -0.0175,-0.0717 -0.0443,-0.1388 -0.0816,-0.2024 -0.0368,-0.0635 -0.084,-0.1196 -0.1423,-0.1685 -0.0578,-0.049 -0.1278,-0.0875 -0.2082,-0.1161 -0.0811,-0.028 -0.1744,-0.042 -0.28,-0.0426 -0.0933,0.0006 -0.1813,0.0117 -0.2648,0.0345 -0.0828,0.0221 -0.1592,0.0524 -0.2286,0.091 -0.07,0.0384 -0.1312,0.0816 -0.1855,0.13l0.098 0.2029c0.0426,-0.0349 0.091,-0.0681 0.1453,-0.1014 0.0547,-0.0327 0.1142,-0.0601 0.1784,-0.0817 0.0642,-0.0222 0.1312,-0.0332 0.2012,-0.0338 0.0945,0.0006 0.1732,0.0158 0.2379,0.0449 0.0643,0.0292 0.1155,0.0688 0.1541,0.1196 0.0384,0.0501 0.0664,0.1079 0.0833,0.172 0.0169,0.0642 0.0257,0.1318 0.0251,0.2024 0,0.1061 -0.0198,0.2111 -0.0589,0.3161 -0.0391,0.105 -0.098,0.2141 -0.1761,0.3266 -0.0787,0.1131 -0.1762,0.235 -0.2934,0.3651 -0.1172,0.1301 -0.2537,0.2736 -0.4094,0.4304l-0.2555 0.2694 0 0.1785 1.5502 0 0 -0.2379zm1.1548 0.2799c0.1744,0 0.3243,-0.0518 0.4497,-0.1557 0.1248,-0.1032 0.221,-0.2572 0.2881,-0.4619 0.0676,-0.2047 0.1015,-0.459 0.1021,-0.7629 -0.0006,-0.2869 -0.0333,-0.529 -0.0975,-0.7261 -0.0641,-0.1971 -0.1556,-0.3464 -0.2752,-0.4484 -0.1195,-0.1021 -0.2625,-0.1529 -0.4287,-0.1535 -0.1231,0 -0.2362,0.028 -0.3388,0.084 -0.1032,0.056 -0.1925,0.14 -0.2683,0.2531 -0.0758,0.1132 -0.1347,0.2549 -0.1761,0.4258 -0.042,0.1703 -0.063,0.3704 -0.0636,0.6001 0.0006,0.2193 0.0204,0.4124 0.0595,0.5798 0.039,0.1674 0.0945,0.3079 0.1662,0.4216 0.0718,0.1138 0.1568,0.1995 0.2554,0.2572 0.0986,0.0577 0.2077,0.0869 0.3272,0.0869zm0.0105 -0.2379c-0.0822,-0.0006 -0.1557,-0.0269 -0.2204,-0.0793 -0.0641,-0.0526 -0.119,-0.1278 -0.1639,-0.2263 -0.0443,-0.098 -0.0787,-0.217 -0.1021,-0.3552 -0.0234,-0.1388 -0.0349,-0.2945 -0.0349,-0.4678 0.0005,-0.2309 0.0238,-0.4292 0.0687,-0.5942 0.0449,-0.1651 0.1073,-0.2917 0.1867,-0.3798 0.0799,-0.088 0.172,-0.1329 0.2764,-0.1335 0.0916,0.0006 0.1709,0.0274 0.2374,0.0811 0.0659,0.053 0.1202,0.1288 0.1627,0.2269 0.0425,0.098 0.0741,0.2146 0.0945,0.3499 0.0204,0.1353 0.0303,0.2852 0.0303,0.4496 0,0.1254 -0.0058,0.2444 -0.018,0.357 -0.0129,0.1126 -0.0321,0.2158 -0.0584,0.3097 -0.0262,0.0938 -0.0606,0.1755 -0.1026,0.2443 -0.042,0.0688 -0.0927,0.1225 -0.1516,0.1598 -0.0589,0.038 -0.1272,0.0572 -0.2048,0.0578zm2.1626 0.1959l0 -2.621 -0.2485 0 -0.5424 0.3045 0.07 0.217 0.4304 -0.2485 0.0071 0 0 2.348 0.2834 0zm0.9553 -2.3795l1.2388 0 0 0.007 -1.0953 2.3725 0.2974 0 1.0953 -2.4355 0 -0.1855 -1.5362 0 0 0.2415z"/>
  </g>
 </g>
</svg>
